<?xml version="1.0" encoding="utf-8"?>
<!-- Generator: Adobe Illustrator 24.3.0, SVG Export Plug-In . SVG Version: 6.00 Build 0)  -->
<svg version="1.1" xmlns="http://www.w3.org/2000/svg" xmlns:xlink="http://www.w3.org/1999/xlink" x="0px" y="0px"
	 viewBox="0 0 1257.46 624.16" style="enable-background:new 0 0 1257.46 624.16;" xml:space="preserve">
<style type="text/css">
	.st0{fill:#808080;stroke:#000000;stroke-width:2;stroke-miterlimit:10;}
	.st1{fill:#FCE0E0;stroke:#000000;stroke-width:2;stroke-miterlimit:10;}
	.st2{fill:#FFFFFF;stroke:#000000;stroke-miterlimit:10;}
	.st3{fill:#3A3A3A;stroke:#000000;stroke-width:0.5;stroke-miterlimit:10;}
	.st4{stroke:#000000;stroke-width:0.5;stroke-miterlimit:10;}
	.st5{opacity:0.5;fill:#FFFFFF;}
	.st6{fill:#FFFFFF;stroke:#000000;stroke-width:3;stroke-miterlimit:10;}
	.st7{fill:#FFFFFF;}
	.st8{fill:#808080;}
</style>
<g id="Orca-pectoral-fin-gray">
	<path class="st0" d="M322.1,468.16c0,0,42,2,66,14c16,16,26,74,6,74c-12,4-42.07-15.14-51.04-17.57
		C338.1,508.16,322.1,468.16,322.1,468.16z"/>
</g>
<g id="Orca-jaw">
	<path class="st1" d="M118.38,294.6c0,0-5,37-16,42s-17.38,21.79-90,46c-2.84,0.95,39.5-26.5,72.5-39.5
		c34.48-13.58,49.5-25.5,49.5-25.5"/>
	<g id="Orca-right-teeth">
		<path class="st2" d="M33.39,370.8c0.37,2.37,3.8,0.48,4.49-0.9c0.49-0.99-1.48-3.46-2.26-6.14
			C35.32,362.68,33.11,369.02,33.39,370.8z"/>
		<path class="st2" d="M41.83,364.73c0.47,2.96,4.75,0.6,5.61-1.12c0.62-1.23-1.85-4.32-2.82-7.67
			C44.24,354.59,41.48,362.52,41.83,364.73z"/>
		<path class="st2" d="M48.3,361.89c0.47,2.96,4.75,0.6,5.61-1.12c0.62-1.23-1.85-4.32-2.82-7.67
			C50.71,351.75,47.95,359.68,48.3,361.89z"/>
		<path class="st2" d="M54.28,358.4c0.81,2.89,4.79,0.04,5.45-1.77c0.47-1.3-2.34-4.08-3.69-7.29
			C55.5,348.05,53.68,356.24,54.28,358.4z"/>
		<path class="st2" d="M60.65,354.95c0.47,2.96,4.75,0.6,5.61-1.12c0.62-1.23-1.85-4.32-2.82-7.67
			C63.06,344.81,60.3,352.74,60.65,354.95z"/>
		<path class="st2" d="M66.96,350.7c0.47,2.96,4.75,0.6,5.61-1.12c0.62-1.23-1.85-4.32-2.82-7.67
			C69.36,340.56,66.61,348.48,66.96,350.7z"/>
		<path class="st2" d="M73.83,347.75c0.47,2.96,4.75,0.6,5.61-1.12c0.62-1.23-1.85-4.32-2.82-7.67
			C76.24,337.61,73.48,345.53,73.83,347.75z"/>
		<path class="st2" d="M84.3,344.91c0.47,2.96,4.75,0.6,5.61-1.12c0.62-1.23-1.85-4.32-2.82-7.67
			C86.71,334.77,83.95,342.69,84.3,344.91z"/>
		<path class="st2" d="M96.65,341.97c0.47,2.96,4.75,0.6,5.61-1.12c0.62-1.23-1.85-4.32-2.82-7.67
			C99.06,331.83,96.3,339.75,96.65,341.97z"/>
	</g>
	<g id="Orca-left-teeth">
		<path class="st2" d="M18.87,382.36c0.61,3.84,6.16,0.77,7.28-1.46c0.8-1.6-2.4-5.6-3.65-9.94
			C21.99,369.22,18.42,379.49,18.87,382.36z"/>
		<path class="st2" d="M26.27,377.32c0.76,4.8,7.7,0.97,9.09-1.82c1-2-3-7-4.56-12.42C30.16,360.9,25.7,373.73,26.27,377.32z"/>
		<path class="st2" d="M36.78,371.92c0.76,4.8,7.7,0.97,9.09-1.82c1-2-3-7-4.56-12.42C40.68,355.5,36.22,368.33,36.78,371.92z"/>
		<path class="st2" d="M47.66,369.49c0.76,4.8,7.7,0.97,9.09-1.82c1-2-3-7-4.56-12.42C51.56,353.07,47.09,365.9,47.66,369.49z"/>
		<path class="st2" d="M57.27,363.32c0.76,4.8,7.7,0.97,9.09-1.82c1-2-3-7-4.56-12.42C61.16,346.9,56.7,359.73,57.27,363.32z"/>
		<path class="st2" d="M68.94,359.9c1.31,4.68,7.76,0.07,8.82-2.86c0.76-2.1-3.79-6.61-5.97-11.81
			C70.92,343.14,67.97,356.4,68.94,359.9z"/>
		<path class="st2" d="M78.27,353.32c0.76,4.8,7.7,0.97,9.09-1.82c1-2-3-7-4.56-12.42C82.16,336.9,77.7,349.73,78.27,353.32z"/>
		<path class="st2" d="M88.66,350.49c0.76,4.8,7.7,0.97,9.09-1.82c1-2-3-7-4.56-12.42C92.56,334.07,88.09,346.9,88.66,350.49z"/>
	</g>
</g>
<g id="Orca-eye">
	<g id="Orca-iris-dkgray">
		<ellipse class="st3" cx="133.13" cy="297.85" rx="12.2" ry="11.5"/>
	</g>
	<g id="Orca-pupil-black">
		<circle class="st4" cx="130.69" cy="297.5" r="7.5"/>
	</g>
	<g id="Orca-eye-shine">
		<ellipse transform="matrix(0.243 -0.97 0.97 0.243 -198 355.2137)" class="st5" cx="128.6" cy="304.47" rx="0.62" ry="1.43"/>
		
			<ellipse transform="matrix(0.3499 -0.9368 0.9368 0.3499 -184.4338 318.0973)" class="st5" cx="136.96" cy="291.93" rx="1.39" ry="2.09"/>
	</g>
</g>
<g id="Orca-main-body-black">
	<path d="M1250.88,360.1c-36-20-60.78-79.94-60.78-79.94s-4-4-8-4s6.78-0.06,8-4c1.18-3.82-10.43-4.58,3.78-14.06c3-2-1.15-2.7-2-3
		c-18.76-6.69-73.78-2.94-73.78-2.94c-52-44-156-68-244-52c-36,0-180,44-244,32c-31.07-28.68-36-100-48-164c4-36,4-68,4-68
		s-16-4-32,28c-28,52-56,204-84,208c-52,4-149.26,4.18-173.22-0.06c-34.22-6.06-55-22-122-25c-24.31-1.09-84-3-112,13
		c-8,8-41-5-61,24c-12.61,18.28,42,32,54,36c90,29,41-20,154.22,148.06c4,0,0,12,4,32c3.34,45.07,8,60,28,92c28,48,56,68,72,68
		c64-24,12-144,8-156c280,80,520-104,544-108c16-8,76-40,120-56c56-12,116.01-20.94,127.78-15.06
		c24.71,21.42,59.84,43.47,88.22,59.06C1242.62,370.42,1270.88,368.1,1250.88,360.1z M133.88,306.1c-6.03,1.2-11.03-4.75-11.9-9.14
		s29.78-9.92,27.9-5.86C143.88,304.1,139.91,304.9,133.88,306.1z"/>
</g>
<g id="Orca-belly-white">
	<path class="st6" d="M314.1,456.16l8,12c0,0,208,56,373.81-24.69c39.32-18.24,100.19-41.31,184.89-91.63
		c-82.7,28.32-74.7,36.32-170.7,76.32c-18.6,0.14,0-20,56-48c80-36,129.14-88.21,28-64c-173.73,41.59-116.72,95.78-180,140
		C488.1,522.16,290.1,436.16,314.1,456.16z"/>
</g>
<g id="Orca-chin-white">
	<path class="st6" d="M35.38,398.6c-36-11-32.61-14.9,2-25c24-7,53.86-27.31,73-44c10.89-9.49,9.86-11.31,21-18c15,23,14-6,24-4
		c16,4,4.72,8.56,24.72,12.56c28,36,48,60,52,84c-28,0-12.13,20.84-18,26C152.1,384.16,118.79,424.09,35.38,398.6z"/>
</g>
<g id="Orca-eye-patch-white">
	<path class="st7" d="M248.1,297.16c-20-20-76-40-104-16c0,4,20,8,24,16C173.15,307.28,265.6,314.66,248.1,297.16z"/>
</g>
<g id="Orca-saddle-gray">
	<path class="st8" d="M682.1,240.16c-32,16-44,20-60,56s-36,60-52,52c4-4,28.97-16.43-11.52-52.22
		C518.1,260.16,666.1,224.16,682.1,240.16z"/>
</g>
<g id="Layer_14">
</g>
</svg>
