<svg id="Title_Logo" data-name="Title Logo" xmlns="http://www.w3.org/2000/svg" viewBox="0 0 1451.64 562.12"><defs><style>.cls-1{fill:#32669e;stroke:#fff;}.cls-1,.cls-2{stroke-linecap:round;stroke-linejoin:round;stroke-width:5px;}.cls-2,.cls-3{fill:#000050;}.cls-2{stroke:#000050;}</style></defs><path class="cls-1" d="M1108.5,3.73c-21.37,2.47-29,72-67,54s-244,82-237,91-17,24-17,24-23.73-16-16.73-25-199-109-237-91-45.63-51.53-67-54c-63.79-7.36-116,165,122,226,278,120,115.92,231.3,146,312,9.23,24.77,93.31,24.34,105.73,1,40.45-76-132-192,146-312C1224.5,168.73,1172.28-3.63,1108.5,3.73Z"/><path class="cls-2" d="M1108.16,4.08c-21.37,2.47-29,72-67,54s-230.44,81.68-237,91c-17.24,24.5-17,24-17,24s.76.5-16.74-25c-6.45-9.4-199-109-237-91s-45.63-51.53-67-54c-63.78-7.36-116,165,122,226,278,120,115.93,231.3,146,312,9.23,24.77,93.32,24.34,105.74,1,40.45-76-132-192,146-312C1224.16,169.08,1171.94-3.28,1108.16,4.08ZM968.92,218.58c-253.85,109.58-115,246-138,316-6.38,19.43-80,20.54-84.6.6-15.4-67.6,113.45-208-140.4-317.6-217.32-55.7-194.81-177.81-138-181,25-1.4,52.66,65.57,87.36,49.14s210.62,74.44,216.41,83.09C786.92,191.58,787,191.64,787,191.64s-.05-.06,15.52-21.92c6-8.48,181.71-99.53,216.41-83.09s64.34-51.91,90-50C1166.18,40.73,1186.24,162.88,968.92,218.58Z"/><path class="cls-3" d="M1212.74,434.79l0-.06.1-.14.21-.32.45-.68.91-1.44c.62-1,1.23-2,1.83-3,1.2-2.05,2.36-4.16,3.5-6.28,2.27-4.26,4.4-8.63,6.35-13.08a193.13,193.13,0,0,0,9.76-27.38,160.57,160.57,0,0,0,5-28.35,121.09,121.09,0,0,0-1-28.37,101.48,101.48,0,0,0-8.13-27,103.22,103.22,0,0,0-6.88-12.42,110.23,110.23,0,0,0-8.61-11.46l-1.17-1.37-.8-.94a6.93,6.93,0,0,1-.6-.85,8.49,8.49,0,0,1-.68-1.28,9.17,9.17,0,0,1-.72-5,9.29,9.29,0,0,1,1.07-3.21,9,9,0,0,1,1.69-2.2,10,10,0,0,1,1.46-1.14,9.34,9.34,0,0,1,1.08-.6,10.45,10.45,0,0,1,2.54-.81,14.47,14.47,0,0,1,2.4-.23c.58,0,1.09,0,1.56,0,.94.05,1.74.14,2.52.24,3.08.42,5.76,1,8.45,1.62,5.34,1.27,10.47,2.74,15.57,4.29,10.17,3.13,20.11,6.72,29.89,10.68s19.37,8.33,28.84,12.92,18.74,9.63,27.77,15.05a311.47,311.47,0,0,1,26.3,17.55,171.32,171.32,0,0,1,23.81,21.33c14.49,15.57,26.43,33.13,36.82,51.46,5.22,9.16,10,18.57,14.51,28.12q1.68,3.58,3.28,7.22c1.07,2.41,2.16,4.83,3.19,7.27s2,4.91,3.06,7.37l1.49,3.74c.48,1.28,1,2.47,1.47,3.89l0,.12a8,8,0,1,1-15.12,5.4,7.87,7.87,0,0,1-.34-1.24c-.19-1.07-.48-2.36-.76-3.55L1434,447c-.61-2.45-1.33-4.88-2-7.31s-1.48-4.86-2.29-7.27-1.66-4.8-2.54-7.19a255.49,255.49,0,0,0-12.12-28c-9.19-18.17-20.51-35.36-34.41-50a144.44,144.44,0,0,0-22.83-19.64,301.14,301.14,0,0,0-26.12-15.86,358.77,358.77,0,0,0-56-24.41c-9.64-3.28-19.4-6.2-29.2-8.61-4.89-1.21-9.81-2.27-14.63-3.05-2.39-.38-4.82-.71-6.9-.83-.51,0-1-.05-1.35,0l-.38,0s0,.05.46,0a6.19,6.19,0,0,0,1.61-.53,8.91,8.91,0,0,0,.88-.48,8.05,8.05,0,0,0,1.27-1,8.38,8.38,0,0,0,1.54-2,8.59,8.59,0,0,0,1-3,8.92,8.92,0,0,0-.07-2.75,8.43,8.43,0,0,0-.56-1.8,11.05,11.05,0,0,0-.56-1.07c-.14-.23-.4-.56-.46-.65L1228,261c-.14-.14,0,0,0,0l.18.19,1.45,1.5a124,124,0,0,1,31.69,58.74,146.94,146.94,0,0,1,3.53,33.5,186.47,186.47,0,0,1-3.25,33.18,237.52,237.52,0,0,1-8.4,32c-1.78,5.22-3.69,10.4-5.81,15.53-1.06,2.57-2.16,5.12-3.34,7.68l-1.81,3.85-1,2-.51,1-.28.53-.34.63a16,16,0,1,1-27.37-16.58Z"/><path class="cls-3" d="M1065.44,379.7a77.74,77.74,0,0,1,21.9-55.42A77,77,0,0,1,1198.47,430.9a77.74,77.74,0,0,1-24.26,17.36,77.08,77.08,0,0,1-84.59-14.1,77.75,77.75,0,0,1-24.18-54.46Zm32-.66a46.77,46.77,0,0,0,1,9,51.28,51.28,0,0,0,2.51,8.69,52.83,52.83,0,0,0,24.5,27.56,51.12,51.12,0,0,0,19.1,5.78,52.35,52.35,0,0,0,20.78-2.16,51.65,51.65,0,0,0,18.81-10.81,52.43,52.43,0,0,0,13-18.1,53,53,0,0,0,3.35-10.8,59.49,59.49,0,0,0,1-11.32A58.46,58.46,0,0,0,1200,365.6a52.63,52.63,0,0,0-17.51-28.19,51.68,51.68,0,0,0-19.25-10,52.49,52.49,0,0,0-20.85-1.29,51,51,0,0,0-18.84,6.57,52.82,52.82,0,0,0-23.34,28.55A51.71,51.71,0,0,0,1098,370,47,47,0,0,0,1097.43,379Z"/><path class="cls-3" d="M923.44,450.82q14.87-12.69,29-26.09c9.43-8.92,18.62-18.07,27.47-27.52,17.67-18.88,34.21-38.77,48.49-60A322.87,322.87,0,0,0,1048,304.53a194.18,194.18,0,0,0,14.08-34.4,101.9,101.9,0,0,0,3.52-17.22,49.09,49.09,0,0,0,.21-8,20.15,20.15,0,0,0-1.21-6.15,4.27,4.27,0,0,0-.81-1.38c-.19-.2-.2-.08-.06.05s.38.22.14.24a15.44,15.44,0,0,0-2,.23,40,40,0,0,0-7,2.14c-2.54,1-5.16,2.21-7.77,3.54a159.1,159.1,0,0,0-15.54,9.24c-5.09,3.41-10.1,7-14.94,10.92a253.11,253.11,0,0,0-27.21,25.08c-4.18,4.47-8.12,9.08-11.82,13.76q-2.77,3.52-5.27,7.12c-1.67,2.39-3.27,4.79-4.73,7.21s-2.79,4.84-3.94,7.24a60.76,60.76,0,0,0-3,7.09,49,49,0,0,0-1.88,7.05,42.78,42.78,0,0,0-.81,7.11,48.86,48.86,0,0,0,1.66,14.45,66,66,0,0,0,5.93,14.46c5.24,9.53,12.74,18.58,21.33,26.9a235.59,235.59,0,0,0,28.6,23.17c10.23,7.23,21.12,13.78,32.17,20.35l0,0a8.05,8.05,0,0,1-6.49,14.62,251.67,251.67,0,0,1-37.49-15.13,201.11,201.11,0,0,1-35.06-22.12c-11-8.81-21.37-19.22-29.51-32.12a90.26,90.26,0,0,1-9.89-21.2,76.49,76.49,0,0,1-3.58-24.16,74.65,74.65,0,0,1,1.23-12.31,79.15,79.15,0,0,1,3.19-11.82,97.38,97.38,0,0,1,10.45-20.61,146.77,146.77,0,0,1,13.11-17.21,201.91,201.91,0,0,1,14.61-15,285.15,285.15,0,0,1,32.07-25.85c11.3-7.79,22.95-15,36-20.87a110.2,110.2,0,0,1,10.27-4,62.86,62.86,0,0,1,11.92-2.81,33.25,33.25,0,0,1,7.72-.08,22.73,22.73,0,0,1,16.42,9.83,28.58,28.58,0,0,1,3.6,7.31,42.94,42.94,0,0,1,2,13.07,71.27,71.27,0,0,1-.91,11.53,113,113,0,0,1-5.49,20.79,214.48,214.48,0,0,1-17.93,36.85,328.32,328.32,0,0,1-22.84,33c-8.22,10.48-16.93,20.48-26,30.1s-18.48,18.86-28.24,27.69-19.74,17.36-30,25.55-20.76,16-31.42,23.57a1.59,1.59,0,0,1-2.23-.37A1.62,1.62,0,0,1,923.44,450.82Z"/><path class="cls-3" d="M522.91,356.07a58.61,58.61,0,0,1,10.38-11.19,60.57,60.57,0,0,1,12.72-8,61.69,61.69,0,0,1,27.68-5.69,66.35,66.35,0,0,1,25.54,5.89,74.43,74.43,0,0,1,34.67,32.65,72.59,72.59,0,0,1,7.59,21.62,62.59,62.59,0,0,1,0,22.59,52.14,52.14,0,0,1-3.29,10.86,52.49,52.49,0,0,1-22.25,25.09,61.56,61.56,0,0,1-21.43,7.34,72,72,0,0,1-23-.33,74.53,74.53,0,0,1-41.9-22.62A67,67,0,0,1,516,412a62.21,62.21,0,0,1-3.58-27.87,61.24,61.24,0,0,1,3.38-14.59A59.1,59.1,0,0,1,522.91,356.07Zm26.3,18.65a31.46,31.46,0,0,0-5.44,13.84,37.78,37.78,0,0,0,1.14,15.38,48.28,48.28,0,0,0,18.42,25.75A51,51,0,0,0,577.77,437a44.9,44.9,0,0,0,15.76,2,37.08,37.08,0,0,0,14.85-3.89,31,31,0,0,0,11.25-9.68,31.46,31.46,0,0,0,5.44-13.84,37.73,37.73,0,0,0-1.13-15.37,48.34,48.34,0,0,0-18.43-25.76,50.67,50.67,0,0,0-14.44-7.27,44.68,44.68,0,0,0-15.76-2.05A37.08,37.08,0,0,0,560.46,365,31.15,31.15,0,0,0,549.21,374.72Z"/><path class="cls-3" d="M526.79,300.14c.73-2.94,1.56-5.66,2.5-8.44s2-5.49,3.16-8.19a72.07,72.07,0,0,1,9.06-15.6,41.85,41.85,0,0,1,6.77-6.88,29,29,0,0,1,9.2-5,26,26,0,0,1,10.94-1,33.07,33.07,0,0,1,10.15,3,49.11,49.11,0,0,1,8.45,5.16,71.48,71.48,0,0,1,7.17,6.15,120.72,120.72,0,0,1,12,13.67c3.63,4.83,7,9.37,10.3,14.1s6.58,9.49,9.75,14.35c6.35,9.72,12.35,19.75,17.84,30.23a246.64,246.64,0,0,1,14.49,33,170.05,170.05,0,0,1,5.22,18,126.36,126.36,0,0,1,3,19.46,86.49,86.49,0,0,1-1.07,21.58A57.78,57.78,0,0,1,662,446a39.7,39.7,0,0,1-3.95,7.17c-.47.68-1,1.39-1.66,2.17a28.65,28.65,0,0,1-2.44,2.57c-.27.24-.53.48-.86.76l-.48.39-.55.43c-.35.27-.85.62-1.29.92L650,461l-.42.25-.52.28a21.68,21.68,0,0,1-6.39,2.3c-.43.08-1,.17-1.44.23s-1,.1-1.52.14-1.26,0-1.89,0-1.25-.06-2.08-.16-1.56-.25-2.32-.43a24.65,24.65,0,0,1-2.59-.81,22.18,22.18,0,0,1-5.13-2.81,21,21,0,1,1,25.11-33.75,20.57,20.57,0,0,0-4.9-2.68,19.9,19.9,0,0,0-2.47-.77,19.5,19.5,0,0,0-2.18-.41c-.79-.1-1.38-.14-2-.16s-1.18,0-1.76,0-.92.07-1.39.12l-1.31.21a18.67,18.67,0,0,0-5.41,1.93l-.7.4-.59.38c-.3.19-.65.45-.86.61l-.34.27-.27.23-.46.42a8.39,8.39,0,0,0-1,1.06,4.06,4.06,0,0,0-.33.52c-.18.44.1.25.36-.09a14.24,14.24,0,0,0,1.9-3.75,46.36,46.36,0,0,0,2.42-12c.75-9-.18-19.12-2.11-29.23A214.85,214.85,0,0,0,619,352.71c-3.57-10.19-7.77-20.3-12.39-30.3-2.31-5-4.74-10-7.25-14.91s-5.1-10-7.81-14.47a106.68,106.68,0,0,0-8.9-12.91,46.26,46.26,0,0,0-10.57-9.87,20.58,20.58,0,0,0-5.75-2.54,13.6,13.6,0,0,0-5.82-.21c-3.95.67-8,3.35-11.59,6.94a62.65,62.65,0,0,0-9.4,12.65c-1.36,2.34-2.62,4.76-3.8,7.23s-2.28,5-3.19,7.49l0,.09a3,3,0,0,1-5.73-1.76Z"/><path class="cls-3" d="M57.16,94.78a18.56,18.56,0,0,0-7.5,4A22,22,0,0,0,44.84,105,52.47,52.47,0,0,0,40,121.49,136.08,136.08,0,0,0,38.62,140c-.08,6.31.15,12.69.54,19.1.82,12.83,2.35,25.75,4.23,38.65s4.16,25.78,6.7,38.62,5.32,25.62,8.39,38.32,6.34,25.3,9.9,37.76C70.17,318.65,72,324.85,74,331s3.88,12.24,5.86,18.29c4,12.09,8.11,24,12.61,35.4,2.22,5.7,4.59,11.24,7.07,16.53a140,140,0,0,0,7.91,14.69,57,57,0,0,0,8.33,10.65,25,25,0,0,0,3.49,2.87,8.34,8.34,0,0,0,7.53,1.24,21.39,21.39,0,0,0,5.94-2.64,57,57,0,0,0,12.54-11.09,118.32,118.32,0,0,0,11.08-15.23,184.07,184.07,0,0,0,9.36-17.19,273.51,273.51,0,0,0,14.38-37.23c4-12.8,7.28-25.86,10-39,5.56-26.39,8.75-53.34,10.81-80.38a16.39,16.39,0,0,1,32-3.46l1,3.46c7.89,26.52,16.69,52.66,25.73,78.19,4.53,12.76,9.13,25.37,13.93,37.67a385.54,385.54,0,0,0,15.49,35.43c2.82,5.55,5.8,10.87,8.9,15.77a102.17,102.17,0,0,0,9.57,13c3.16,3.63,6.37,6.34,8.45,7.43,1,.53,1.71.7,1.83.58s-.29-.33-.8-.44-1-.11-.89-.22.63-.42,1.52-1.12a45.87,45.87,0,0,0,7.64-7.69,115.78,115.78,0,0,0,8.85-12.74c2.9-4.78,5.74-9.93,8.41-15.33A367.22,367.22,0,0,0,357.4,344c4.46-12,8.57-24.31,12.23-36.85a602,602,0,0,0,17.2-76.91c2-13,3.51-26.06,4.32-39.07.41-6.5.64-13,.62-19.43s-.25-12.84-.83-19.14c-1.15-12.57-3.58-24.88-8.76-35.39a50.62,50.62,0,0,0-4.55-7.4,37.19,37.19,0,0,0-22.71-14.23l-.06,0a3.26,3.26,0,0,1,.06-6.38,44.16,44.16,0,0,1,23.43,1.63,55.27,55.27,0,0,1,20.73,13.47,84.77,84.77,0,0,1,7.94,9.29,110.6,110.6,0,0,1,6.47,10.1,142.06,142.06,0,0,1,9.68,21.27A231.26,231.26,0,0,1,434,189a351,351,0,0,1,3.67,44.34,430.6,430.6,0,0,1-1.38,44.16q-1.79,22-5.72,43.85c-1.33,7.27-2.78,14.55-4.5,21.79s-3.55,14.5-5.69,21.71c-1.07,3.61-2.17,7.22-3.35,10.83s-2.45,7.19-3.76,10.79c-2.61,7.2-5.6,14.35-8.87,21.52a227,227,0,0,1-11.33,21.42c-2.16,3.56-4.46,7.12-7,10.67s-5.24,7.09-8.25,10.62c-1.5,1.76-3.1,3.52-4.76,5.27s-3.45,3.47-5.33,5.19a95.23,95.23,0,0,1-12.92,9.95,75.54,75.54,0,0,1-17.13,8.1,64,64,0,0,1-21.37,3.13A63.26,63.26,0,0,1,295.14,478a72.42,72.42,0,0,1-16.55-9.17,89.59,89.59,0,0,1-12-10.73,109.88,109.88,0,0,1-9.13-11,166,166,0,0,1-13.31-21.86c-3.71-7.22-6.9-14.39-9.77-21.52a397.85,397.85,0,0,1-14.19-42.53c-3.85-14.13-6.91-28.28-9.39-42.44-4.95-28.31-7.62-56.65-9.86-84.83H234l-23.54,79.42c-7.86,26.46-15.78,52.82-25.37,79.28q-3.6,9.93-7.84,19.86a194.35,194.35,0,0,1-9.81,19.87,115.76,115.76,0,0,1-6.3,9.88,79.14,79.14,0,0,1-8,9.66,59.92,59.92,0,0,1-10.92,8.83,46.79,46.79,0,0,1-14.91,6.06,46.19,46.19,0,0,1-17.18.35,55.81,55.81,0,0,1-15.31-5,74.42,74.42,0,0,1-12.3-7.51,108.68,108.68,0,0,1-10-8.56,144.37,144.37,0,0,1-15.94-18.44A200.16,200.16,0,0,1,44,408.36C29.08,382.15,19.9,354.64,13.3,326.83A491,491,0,0,1,.76,242.49a420.73,420.73,0,0,1-.39-42.78,302.09,302.09,0,0,1,4.77-43,197.08,197.08,0,0,1,5.26-21.48,125.12,125.12,0,0,1,8.5-21.13A77.44,77.44,0,0,1,25.17,104a49.62,49.62,0,0,1,8.46-9,32.14,32.14,0,0,1,11.26-6.12,25,25,0,0,1,12.27-.46,3.28,3.28,0,0,1,.17,6.35Z"/></svg>