<?xml version="1.0" encoding="utf-8"?>
<!-- Generator: Adobe Illustrator 24.2.3, SVG Export Plug-In . SVG Version: 6.00 Build 0)  -->
<svg version="1.1" xmlns="http://www.w3.org/2000/svg" xmlns:xlink="http://www.w3.org/1999/xlink" x="0px" y="0px"
	 viewBox="0 0 944.42 473.34" style="enable-background:new 0 0 944.42 473.34;" xml:space="preserve">
<style type="text/css">
	.st0{fill:#32669E;stroke:#000000;stroke-width:8;stroke-miterlimit:10;}
	.st1{fill:#E2E8F7;}
	.st2{stroke:#000000;stroke-miterlimit:10;}
	.st3{fill:#E0E1E2;}
	.st4{fill:#BFC0C1;}
	.st5{fill:#FFFFFF;}
	.st6{fill:#5073D6;stroke:#000000;stroke-miterlimit:10;}
	.st7{fill:#EAEDF4;stroke:#000000;stroke-width:5;stroke-miterlimit:10;}
</style>
<g id="body">
	<path id="outline_2_" class="st0" d="M240.18,350.39c-52.08-23.5-102.88-73.76-124.87-175.98c-0.29-1.36-1.38-2.42-2.75-2.64
		c-11.31-1.8-16.19-12.96-17.75-17.6c-0.41-1.23-1.5-2.11-2.8-2.26c-15.1-1.82-108.91-21.09-83.77-70.66
		c0.34-0.67,18.67,7.37,28.26,1.25c11.06-7.06,24.22-8.89,29.86-5.11c13.81,9.24,20.26-11.98,55.73,11.51
		c0.87,0.58,1.6,1.36,1.79,2.39c1.98,10.64,3.24,3.48,3.68,0.03c0.13-1.02,0.58-2.64,1.59-2.46c9.38,1.68,14.06-16.7,47.11-9.32
		c7.58-10.13,16.93-10.47,30.71-8.25c7.83-12.81,25.81-5.92,29.58-14.25c11.47-1.45,15.37,43.33,8.2,46.73
		c-4.7,2.23,3.77,8.89,27,6.15c22.74-2.68,74.35-25.47,92.07-25.84c0.74-0.02,1.44-0.28,2.01-0.74
		c38-30.44,110.99-43.22,220.74-60.58c0.37-0.06,0.73-0.18,1.05-0.35c45.27-24.12,86.03-25.68,147.21,2.13
		c7.51-2.08,149.88,17.05,157.56,22.23c16.28-0.28,22.43,5.04,19.59,17.2c-0.26,1.13,0.97,2.11,2.04,2.55
		c6.75,2.8,30.67,13.92,25.69,29.32c-5.63,17.42-11.18,2.03-3,22.24c0.17,0.41,0.26,0.86,0.25,1.3
		c-0.19,11.32-10.01,10.83-12.78,10.47c-0.53-0.07-1.07-0.02-1.58,0.16c-3.94,1.41-20.05,8.93-18.46,36.93
		c0.08,1.46-0.79,2.81-2.15,3.35c-9.28,3.66-10.51,13.79-10.68,16.41c-0.03,0.5-0.17,0.98-0.42,1.42c-1.24,2.22-5.7,8.16-17.15,6.06
		c-0.99-0.18-2.02,0.08-2.78,0.73c-18.86,16.15-35.58,8.69-38.91,6.93c-0.43-0.23-0.89-0.37-1.37-0.4
		c-8.3-0.55-82.1-3.36-142.31,65.75c-63.5,72.89-113.44,59.12-132.83,56.74c-0.24-0.03-0.47-0.09-0.7-0.17
		c-20.24-7.09-146.68,30.32-165.24,37.92c-7.84,3.21-48.69,12.42-97.16,4.36"/>
	<path id="outline_1_" class="st1" d="M909.75,68.37c11.79-1.42,26.79,10.08,25.99,23.48c-1.09,18.27-11.18,2.03-3,22.24
		c0.17,0.41,0.26,0.86,0.25,1.3c-0.19,11.32-10.01,10.83-12.78,10.47c-0.53-0.07-1.07-0.02-1.58,0.16
		c-3.94,1.41-20.05,8.93-18.46,36.93c0.08,1.46-0.79,2.81-2.15,3.35c-9.28,3.66-10.51,13.79-10.68,16.41
		c-0.03,0.5-0.17,0.98-0.42,1.42c-1.24,2.22-5.7,8.16-17.15,6.06c-0.99-0.18-2.02,0.08-2.78,0.73
		c-18.86,16.15-35.58,8.69-38.91,6.93c-0.43-0.23-0.89-0.37-1.37-0.4c-8.3-0.55-82.1-2.36-142.31,66.75
		c-63.5,72.89-113.44,58.12-132.83,55.74c-0.24-0.03-0.47-0.09-0.7-0.17c-20.24-7.09-146.68,30.32-165.24,37.92
		c-7.01,2.87,39.87-147.22,98.01-136.8c73.24,13.13,180.44-104.53,259.04-101.72C805.98,121.43,799.69,81.59,909.75,68.37z"/>
	<g id="dorsal">
		<path d="M131.49,110.17c0.98,5.5,4.3,10.54,8.93,13.18c4.63,2.71,10.21,3.13,15.55,2.51c5.38-0.64,10.68-2.25,15.8-4.28
			c5.14-2.03,10.1-4.58,14.96-7.29l-0.39,0.21c1.43-1.07,2.76-2.26,3.4-3.26c0.33-0.5,0.44-0.87,0.46-1.15c0.01-0.3,0-0.6-0.03-1.54
			c-0.01-0.88-0.14-2.42,0.19-4.24c0.3-1.82,1.14-3.67,2.17-4.95c1.04-1.31,2.19-2.19,3.31-2.9c1.14-0.71,2.3-1.14,3.51-1.43
			l-2.32,4.49l0,0c-0.04-3.32,0.09-6.73,1.18-10.43c0.57-1.83,1.41-3.81,3.01-5.63c0.8-0.9,1.8-1.73,2.94-2.34
			c1.14-0.61,2.37-0.98,3.55-1.13c2.37-0.3,4.41,0.12,6.19,0.68c1.78,0.57,3.34,1.34,4.81,2.16c2.92,1.66,5.45,3.58,7.87,5.59l0,0
			l-1.11-0.56c2.19,0.16,4.35,0.85,6.36,1.85c1.99,1.04,3.83,2.41,5.36,4.05c1.52,1.63,2.85,3.45,3.65,5.52
			c0.23,0.5,0.38,1.03,0.53,1.56c0.16,0.52,0.27,1.06,0.36,1.61c0.18,1.11,0.23,2.16,0.05,3.43l0,0l-0.67-0.95
			c0.58,0.44,1.44,0.95,2.23,1.36c0.81,0.43,1.66,0.8,2.53,1.15c1.74,0.69,3.55,1.22,5.4,1.65c1.86,0.39,3.75,0.69,5.66,0.84
			c0.96,0.11,1.92,0.1,2.88,0.16c0.96,0.01,1.93-0.01,2.9-0.01l0.06,0.6c-0.98,0.07-1.95,0.15-2.93,0.2
			c-0.98,0.01-1.96,0.07-2.93,0.03c-1.96-0.03-3.91-0.21-5.85-0.49c-1.93-0.31-3.85-0.75-5.72-1.35c-1.87-0.62-3.69-1.35-5.4-2.42
			l-0.11-0.07l-0.04-0.14l0,0c-0.67-1.7-1.57-3.35-2.57-4.89c-0.99-1.55-2.18-2.97-3.45-4.29c-1.29-1.31-2.75-2.44-4.33-3.39
			c-1.59-0.91-3.27-1.71-5.03-2.3l-0.1-0.03l-0.05-0.04l0,0c-2.37-1.8-4.84-3.5-7.47-4.85c-1.32-0.67-2.67-1.26-4.08-1.65
			c-1.4-0.39-2.85-0.59-4.23-0.37c-1.38,0.21-2.63,0.93-3.51,2.01c-0.9,1.07-1.46,2.42-1.84,3.82c-0.73,2.82-0.78,5.82-0.61,8.78
			l0,0l0.03,0.3l-0.29,0.2c-1.64,1.14-3.28,2.32-4.47,3.82c-0.61,0.73-1.06,1.55-1.31,2.45c-0.27,0.89-0.31,1.87-0.37,2.9
			c-0.05,1.02-0.18,2.13-0.57,3.16c-0.39,1.03-1.01,1.95-1.72,2.75c-1.43,1.59-3.17,2.77-4.93,3.84l-0.02,0.01l-0.02,0.01
			c-5.18,2.43-10.47,4.62-15.91,6.4c-5.43,1.78-11.06,3.13-16.8,3.45c-2.87,0.14-5.77,0.03-8.6-0.55c-2.82-0.58-5.59-1.61-7.99-3.24
			c-4.86-3.23-7.95-8.73-8.63-14.48L131.49,110.17z"/>
	</g>
	<g id="mouth">
		<path d="M494.67,150c1.09-8.64,3.87-17.12,8.31-24.7c0.5-0.98,1.17-1.86,1.76-2.78c0.62-0.91,1.22-1.83,1.86-2.72l2.06-2.57
			c0.69-0.86,1.36-1.73,2.14-2.51c1.52-1.59,2.97-3.25,4.64-4.68l2.43-2.22c0.83-0.71,1.71-1.37,2.57-2.06
			c6.89-5.46,14.54-9.87,22.47-13.56c7.94-3.69,16.18-6.67,24.54-9.21c16.75-5.01,33.96-8.09,51.2-10.42
			c17.27-2.22,34.62-3.58,51.98-4.4c17.36-0.84,34.74-1.02,52.09-0.94l25.93,0.04c8.64,0.02,17.28,0.01,25.92-0.04
			c17.28-0.1,34.55-0.36,51.81-0.87c17.26-0.47,34.5-1.4,51.76-1.94l0.52-0.02l0.36,0.06c3.16,0.48,6.32,0.96,9.47,1.32
			c3.15,0.35,6.29,0.71,9.38,0.86c1.54,0.07,3.08,0.12,4.57,0.08c1.5-0.02,2.94-0.17,4.29-0.21c1.34-0.05,2.6-0.16,3.34-0.15
			c0.17,0.02,0.34,0.04,0.49,0.07c0.17,0.02,0.36,0,0.53-0.15c0.39-0.3,0.57-1.13,0.58-2l0.68-0.58c0.52,0.2,0.97,0.48,1.37,0.88
			c0.41,0.39,0.77,0.91,0.98,1.58c0.21,0.65,0.26,1.46,0.06,2.21c-0.16,0.78-0.54,1.43-0.94,2.01c-0.84,1.12-1.8,1.81-2.74,2.39
			c-0.93,0.54-1.88,0.94-2.79,1.23c-1.84,0.6-3.64,0.8-5.39,0.94c-1.76,0.15-3.47,0.2-5.18,0.23c-3.41,0.02-6.76-0.09-10.09-0.36
			c-3.33-0.24-6.62-0.61-9.9-0.98l0.88,0.04c-17.31,1.14-34.67,1.51-52.01,1.79c-17.35,0.29-34.69,0.35-52.02,0.27
			c-8.67-0.04-17.33-0.13-25.99-0.24c-8.66-0.15-17.32-0.35-25.98-0.56c-17.26-0.43-34.5-0.59-51.74-0.19
			c-17.23,0.41-34.44,1.35-51.56,3.13c-8.54,0.98-17.08,2.04-25.54,3.55c-8.45,1.51-16.88,3.23-25.16,5.45
			c-8.27,2.24-16.43,4.91-24.29,8.28c-7.85,3.37-15.42,7.44-22.26,12.53c-0.85,0.64-1.72,1.26-2.55,1.92l-2.42,2.08
			c-1.67,1.34-3.11,2.9-4.63,4.4c-0.78,0.73-1.45,1.55-2.14,2.36l-2.08,2.43c-0.64,0.85-1.25,1.72-1.88,2.58
			c-0.61,0.87-1.3,1.7-1.81,2.63c-4.57,7.2-7.6,15.38-8.97,23.87L494.67,150z"/>
	</g>
	<g id="blowhole">
		<path class="st2" d="M629.01,16.46c0,0,16.78-2.24,46.58,0.61C646.15,26.03,635.49,21.41,629.01,16.46z"/>
	</g>
	<g id="wrinkle_shadow_bottom">
		<path class="st3" d="M437.74,319.14c0.5,0.4,1.17,0.47,1.78,0.58c0.63,0.09,1.26,0.14,1.89,0.17c1.26,0.06,2.53,0.07,3.8,0.05
			c2.53-0.05,5.06-0.17,7.59-0.34c5.06-0.34,10.1-0.85,15.14-1.43c10.06-1.21,20.11-2.57,30.11-4.24c10-1.63,19.95-3.57,29.88-5.58
			c9.93-2.02,19.81-4.27,29.62-6.77l0.2-0.05l0.22,0.01c14.12,0.65,28.3-1.17,41.81-5.29c13.52-4.11,26.29-10.57,38-18.55
			c5.84-4.01,11.5-8.31,16.89-12.94c5.41-4.61,10.56-9.53,15.52-14.63c9.86-10.37,20.15-20.33,30.7-29.98
			c10.55-9.65,21.42-18.96,32.56-27.93c11.15-8.96,22.57-17.58,34.4-25.62c11.84-8.01,24.05-15.56,37.02-21.62
			c6.49-2.99,13.2-5.61,20.19-7.18c3.49-0.76,7.07-1.25,10.65-1.15c3.56,0.11,7.18,0.87,10.26,2.72c-3.1-1.82-6.71-2.53-10.26-2.6
			c-3.57-0.06-7.12,0.46-10.59,1.26c-6.95,1.64-13.59,4.34-20.04,7.38c-12.88,6.15-25,13.79-36.74,21.88
			c-23.44,16.3-45.4,34.66-66.39,53.99c-10.48,9.69-20.68,19.67-30.45,30.06c-9.76,10.48-20.37,20.3-32.23,28.49
			c-11.83,8.19-24.8,14.88-38.61,19.18c-13.77,4.41-28.39,6.08-42.81,5.32l0.41-0.04c-9.88,2.44-19.81,4.62-29.79,6.58
			c-9.98,1.97-20.02,3.57-30.08,5.03c-10.07,1.41-20.15,2.69-30.29,3.48c-5.07,0.4-10.14,0.73-15.22,0.89
			c-2.54,0.07-5.08,0.13-7.63,0.04c-1.27-0.04-2.54-0.1-3.81-0.23c-0.63-0.07-1.27-0.14-1.89-0.27
			C438.89,319.67,438.22,319.57,437.74,319.14z"/>
	</g>
	<g id="wrinkle_shadow_mid">
		<path class="st3" d="M431.04,304.45c9.06,0.14,18.11-0.06,27.14-0.61c9.02-0.62,18.01-1.67,26.93-3.09
			c8.93-1.37,17.77-3.25,26.52-5.46c8.75-2.23,17.41-4.8,25.92-7.8c17.01-6.02,33.61-13.2,49.6-21.6
			c16-8.37,31.46-17.75,46.49-27.77c15.08-9.96,29.75-20.55,44.26-31.35l21.73-16.3c7.23-5.45,14.51-10.85,21.88-16.13
			c7.36-5.29,14.82-10.47,22.45-15.39c7.64-4.9,15.41-9.62,23.54-13.71c4.05-2.07,8.21-3.91,12.41-5.65
			c4.24-1.65,8.52-3.18,12.92-4.36c4.4-1.15,8.85-2.11,13.37-2.59c4.52-0.45,9.07-0.53,13.58-0.18c-4.53-0.2-9.05,0.03-13.53,0.63
			c-4.48,0.6-8.88,1.65-13.21,2.9c-4.33,1.28-8.54,2.91-12.7,4.64c-4.12,1.83-8.2,3.75-12.17,5.91c-7.99,4.2-15.65,8.99-23.17,13.99
			c-7.52,5.01-14.86,10.28-22.13,15.67c-29.02,21.58-57.34,44.28-87.58,64.42c-15.15,9.99-30.75,19.36-46.89,27.7
			c-16.14,8.33-32.86,15.62-50.11,21.35c-8.62,2.89-17.38,5.34-26.21,7.45c-8.84,2.08-17.76,3.86-26.76,5.08
			c-9,1.21-18.04,2.04-27.1,2.44C449.16,304.99,440.09,304.91,431.04,304.45z"/>
	</g>
	<g id="wrinkle_shadow_top">
		<path class="st3" d="M442.01,265.59c2.13-1.87,4.42-3.56,6.84-5.05c2.43-1.48,4.97-2.77,7.59-3.9c5.24-2.25,10.75-3.82,16.33-4.97
			c11.19-2.22,22.58-2.88,33.87-3.59c5.65-0.37,11.29-0.69,16.88-1.25c5.59-0.57,11.14-1.38,16.48-2.84
			c5.32-1.46,10.46-3.65,14.56-7.13c0.98-0.86,2.03-1.87,3.06-2.84l3.11-2.9c2.08-1.93,4.18-3.84,6.29-5.73
			c8.46-7.56,17.05-14.97,25.9-22.08c8.85-7.1,17.88-14,27.29-20.37c9.41-6.36,19.08-12.39,29.42-17.19
			c5.18-2.34,10.54-4.4,16.12-5.6c2.79-0.58,5.64-0.96,8.5-0.86c2.84,0.11,5.71,0.7,8.21,2.07c-2.56-1.24-5.41-1.67-8.21-1.63
			c-2.81,0.03-5.6,0.49-8.32,1.17c-5.45,1.39-10.65,3.62-15.68,6.14c-10.08,5.03-19.56,11.21-28.75,17.75
			c-18.33,13.18-35.68,27.71-52.48,42.82l-6.27,5.7l-3.11,2.87c-1.04,0.96-2.03,1.92-3.18,2.92c-4.59,3.86-10.15,6.15-15.71,7.66
			c-5.6,1.47-11.31,2.22-16.98,2.72c-5.68,0.5-11.35,0.76-17.01,0.96c-11.31,0.43-22.61,0.8-33.71,2.71
			c-5.54,0.93-11.04,2.23-16.3,4.25C451.5,259.41,446.48,262.09,442.01,265.59z"/>
	</g>
	<g id="wrinkle_highlight_top">
		<path class="st4" d="M437.74,319.14c0.51,0.38,1.18,0.41,1.8,0.49c0.63,0.06,1.26,0.08,1.89,0.08c1.26,0,2.52-0.05,3.78-0.12
			c2.52-0.16,5.04-0.37,7.55-0.63c5.03-0.52,10.04-1.18,15.04-1.9c10-1.47,19.99-3.02,29.93-4.81c9.95-1.75,19.86-3.76,29.76-5.74
			c9.9-2.02,19.76-4.19,29.58-6.57l0.18-0.04l0.2,0.01c7.01,0.2,14.03-0.13,20.98-1.01c3.47-0.43,6.93-1.01,10.36-1.68
			c3.42-0.74,6.84-1.53,10.19-2.55c6.73-1.94,13.26-4.54,19.59-7.55c6.3-3.07,12.38-6.61,18.18-10.58
			c5.81-3.95,11.37-8.27,16.67-12.92c5.31-4.65,10.27-9.61,15.21-14.74c9.97-10.1,20.33-19.79,30.93-29.21
			c10.61-9.41,21.5-18.5,32.63-27.29c11.13-8.78,22.52-17.24,34.26-25.2c11.74-7.93,23.81-15.45,36.56-21.7
			c6.38-3.08,12.95-5.86,19.8-7.72c3.42-0.91,6.93-1.59,10.48-1.71c3.52-0.11,7.19,0.37,10.28,2.15c-3.11-1.75-6.76-2.19-10.27-2.04
			c-3.54,0.16-7.02,0.87-10.43,1.82c-6.81,1.93-13.32,4.77-19.65,7.91c-12.66,6.33-24.64,13.94-36.3,21.95
			c-11.65,8.04-22.94,16.59-33.99,25.44c-11.04,8.86-21.82,18.05-32.35,27.5c-10.53,9.45-20.82,19.18-30.71,29.29l-7.38,7.66
			c-2.49,2.54-5.04,5.02-7.66,7.43c-5.26,4.8-10.77,9.36-16.63,13.44c-5.86,4.09-12.03,7.74-18.44,10.92
			c-6.43,3.13-13.09,5.83-19.96,7.87c-13.7,4.23-28.15,5.82-42.44,5.31l0.37-0.04c-9.87,2.31-19.78,4.42-29.72,6.37
			c-9.94,1.98-19.93,3.63-29.94,5.2c-10.01,1.53-20.04,3-30.11,4.05c-5.04,0.53-10.08,1.01-15.14,1.34
			c-2.53,0.16-5.06,0.31-7.59,0.33c-1.27,0.01-2.54,0-3.8-0.06c-0.63-0.04-1.27-0.08-1.89-0.17
			C438.91,319.61,438.23,319.55,437.74,319.14z"/>
	</g>
	<g id="wrinkle_highlight_bottom">
		<path class="st4" d="M442.01,265.59c2.12-1.86,4.39-3.56,6.78-5.07c2.4-1.5,4.91-2.83,7.49-4c5.17-2.34,10.62-4.04,16.13-5.35
			c11.07-2.53,22.39-3.54,33.6-4.62c11.18-1.13,22.49-1.95,33.04-5.26c5.24-1.64,10.26-4.04,14.24-7.64
			c4.08-3.82,8.3-7.67,12.57-11.34c8.55-7.39,17.28-14.57,26.27-21.43c8.99-6.85,18.17-13.47,27.71-19.55
			c9.54-6.07,19.35-11.79,29.77-16.28c5.23-2.19,10.61-4.09,16.2-5.15c2.79-0.52,5.64-0.83,8.48-0.69c2.83,0.16,5.68,0.77,8.16,2.13
			c-2.55-1.23-5.38-1.68-8.17-1.69c-2.8-0.01-5.58,0.38-8.31,1c-5.46,1.26-10.7,3.34-15.78,5.69c-10.17,4.73-19.79,10.6-29.12,16.86
			c-9.3,6.3-18.38,12.95-27.23,19.88c-8.85,6.94-17.56,14.07-26.02,21.47c-4.24,3.71-8.4,7.42-12.56,11.29
			c-4.43,3.97-9.86,6.49-15.35,8.19c-5.52,1.71-11.17,2.63-16.8,3.35c-5.64,0.69-11.28,1.15-16.9,1.53
			c-11.24,0.79-22.48,1.51-33.48,3.73c-5.49,1.08-10.93,2.52-16.13,4.62C451.42,259.38,446.46,262.11,442.01,265.59z"/>
	</g>
	<g id="wrinkle_highlight_mid">
		<path class="st4" d="M431.04,304.45c9.04-0.19,18.06-0.66,27.05-1.46c8.99-0.89,17.93-2.11,26.81-3.71
			c8.88-1.57,17.68-3.56,26.39-5.87c8.71-2.31,17.32-4.99,25.79-8.05c16.94-6.12,33.49-13.35,49.42-21.77
			c15.96-8.38,31.38-17.76,46.38-27.76c15.05-9.95,29.7-20.5,44.22-31.25l21.76-16.18c7.25-5.4,14.56-10.74,21.98-15.92
			c7.42-5.19,14.93-10.25,22.63-15.03c7.7-4.78,15.6-9.25,23.8-13.15c2.03-1,4.14-1.85,6.21-2.79c2.11-0.83,4.19-1.75,6.34-2.49
			c4.24-1.62,8.61-2.89,13-4.02c4.4-1.09,8.89-1.84,13.39-2.34c4.51-0.41,9.05-0.47,13.56-0.22c-4.52-0.1-9.04,0.11-13.51,0.67
			c-4.47,0.62-8.9,1.47-13.24,2.66c-4.33,1.23-8.62,2.6-12.79,4.31c-2.11,0.78-4.15,1.75-6.22,2.62c-2.03,0.98-4.09,1.87-6.09,2.92
			c-8.06,4.01-15.86,8.55-23.43,13.43c-7.59,4.87-14.99,10.02-22.3,15.31c-29.19,21.23-57.46,43.87-87.64,63.97
			c-15.12,9.98-30.68,19.33-46.78,27.68c-16.09,8.35-32.74,15.7-49.92,21.52c-8.58,2.95-17.28,5.52-26.08,7.71
			c-8.8,2.18-17.67,4.07-26.62,5.49c-8.96,1.38-17.96,2.39-26.98,3.05C449.13,304.38,440.08,304.58,431.04,304.45z"/>
	</g>
</g>
<g id="eye">
	<g id="sclera">
		<ellipse class="st5" cx="455.9" cy="166.96" rx="36" ry="27"/>
		<path d="M492.9,166.96c-0.33,4.34-1.65,8.51-3.85,12.2c-2.2,3.7-5.35,6.77-8.89,9.16c-7.13,4.8-15.72,7.07-24.26,7.27
			c-8.54,0.08-17.27-1.88-24.73-6.55c-3.7-2.33-7.07-5.37-9.59-9.14c-2.52-3.74-4.1-8.29-4.18-12.95c0-1.15-0.31-2.35-0.32-3.56
			l-0.02-1.84l0-0.94c0.02-0.31,0.07-0.61,0.11-0.92c0.17-1.23,0.36-2.49,0.83-3.63c0.22-0.58,0.45-1.16,0.68-1.74
			c0.27-0.56,0.58-1.08,0.88-1.62c2.42-4.31,5.81-7.95,9.68-10.78c7.72-5.8,17.38-8.26,26.65-7.98c9.29,0.39,18.54,3.58,25.64,9.53
			c3.55,2.93,6.55,6.54,8.57,10.59c0.25,0.51,0.52,1,0.75,1.51l0.59,1.59c0.45,1.03,0.63,2.15,0.93,3.22
			c0.07,0.27,0.15,0.53,0.2,0.81l0.11,0.83l0.2,1.64C492.98,164.78,492.9,165.88,492.9,166.96z M489.9,166.96
			c-0.05-3.75-1.28-7.42-3.36-10.58c-2.08-3.18-4.96-5.85-8.23-7.95c-3.3-2.05-6.97-3.56-10.77-4.46
			c-3.82-0.85-7.75-1.16-11.64-1.01l-2.9,0.35c-0.48,0.04-0.96,0.15-1.43,0.25c-0.47,0.09-0.95,0.19-1.41,0.31
			c-0.94,0.2-1.85,0.54-2.76,0.83c-0.45,0.16-0.91,0.28-1.35,0.47l-1.3,0.6c-3.44,1.58-6.52,3.67-9.09,5.98
			c-2.56,2.33-4.68,4.77-6.28,7.27c-0.19,0.31-0.41,0.62-0.6,0.94c-0.16,0.32-0.36,0.62-0.61,0.91c-0.56,0.55-1.07,1.1-1.88,1.65
			c-0.81,0.55-1.5,1.2-2.3,1.93c-0.2,0.18-0.35,0.38-0.5,0.58c-0.15,0.2-0.32,0.4-0.44,0.61l-0.4,0.65
			c-0.12,0.22-0.34,0.44-0.26,0.67c0,3.65,1.14,7.25,3.15,10.4c2,3.16,4.82,5.85,8.04,7.98c6.48,4.27,14.42,6.29,22.31,6.39
			c7.88-0.01,15.87-1.94,22.45-6.17c3.27-2.11,6.16-4.79,8.26-7.97C488.72,174.42,489.88,170.71,489.9,166.96z"/>
	</g>
	<ellipse id="iris" class="st6" cx="460.4" cy="170.96" rx="24" ry="18.5"/>
	<ellipse id="pupil" class="st2" cx="460.4" cy="171.46" rx="15" ry="13"/>
	
		<ellipse transform="matrix(0.9609 -0.277 0.277 0.9609 -26.8725 132.4764)" class="st5" cx="455.43" cy="161.35" rx="4.97" ry="5.62"/>
</g>
<g id="pectoral_fin_1_">
	<path id="pectoral_fin" class="st7" d="M228.44,470.71c0,0-27.59-61.04,13.1-122.42c7.59-8.97,11.38-24.48,11.38-24.48
		s5.17-45.52,43.45-50c0-15.52,23.1-53.79,38.62-43.79c15.52,10,25.52,41.03,18.62,58.28c-6.9,17.24-44.18,63.2-52.76,68.02
		c-8.57,4.83-21.72,35.77-21.72,35.77s-1.03,10-10.69,10.69C258.78,403.47,249.47,474.16,228.44,470.71z"/>
</g>
</svg>
