<?xml version="1.0" encoding="utf-8"?>
<!-- Generator: Adobe Illustrator 24.2.3, SVG Export Plug-In . SVG Version: 6.00 Build 0)  -->
<svg version="1.1" xmlns="http://www.w3.org/2000/svg" xmlns:xlink="http://www.w3.org/1999/xlink" x="0px" y="0px"
	 viewBox="0 0 1920 1080" style="enable-background:new 0 0 1920 1080;" xml:space="preserve">
<style type="text/css">
	.st0{fill:#32669E;stroke:#000000;stroke-width:8;stroke-miterlimit:10;}
	.st1{fill:#E2E8F7;}
	.st2{fill:#FFFFFF;}
	.st3{fill:#5073D6;stroke:#000000;stroke-miterlimit:10;}
	.st4{stroke:#000000;stroke-miterlimit:10;}
	.st5{fill:#EAEDF4;stroke:#000000;stroke-width:5;stroke-miterlimit:10;}
</style>
<g id="body">
	<path id="outline_2_" class="st0" d="M707.28,668.42c-52.08-23.5-102.88-73.76-124.87-175.98c-0.29-1.36-1.38-2.42-2.75-2.64
		c-11.31-1.8-16.19-12.96-17.75-17.6c-0.41-1.23-1.5-2.11-2.8-2.26c-15.1-1.82-108.91-21.09-83.77-70.66
		c0.34-0.67,18.67,7.37,28.26,1.25c11.06-7.06,24.22-8.89,29.86-5.11c13.81,9.24,20.26-11.98,55.73,11.51
		c0.87,0.58,1.6,1.36,1.79,2.39c1.98,10.64,3.24,3.48,3.68,0.03c0.13-1.02,0.58-2.64,1.59-2.46c9.38,1.68,14.06-16.7,47.11-9.32
		c7.58-10.13,16.93-10.47,30.71-8.25c7.83-12.81,25.81-5.92,29.58-14.25c11.47-1.45,15.37,43.33,8.2,46.73
		c-4.7,2.23,3.77,8.89,27,6.14c22.74-2.68,74.35-25.47,92.07-25.84c0.74-0.02,1.44-0.28,2.01-0.74
		c38-30.44,110.99-43.22,220.74-60.58c0.37-0.06,0.73-0.18,1.05-0.35c45.27-24.12,86.03-25.68,147.21,2.13
		c1.28,0.58,2.78,0.32,3.79-0.66c10.13-9.83,13.11-4.04,18.73,3.06c10.07,10.67,24.06,1.57,32.38-2.69s11.4,7.96,16.47,6.74
		c7.38,0.92,25.31-2.06,28.07-3.87c7.76-3.14,8.14,5.17,12.56,7.58c4.46,2.43,47.85,7.71,49.68,9.12c1.15,0.9,2.14,1.55,2.46,2.67
		c0.39,1.39,1.56,2.37,2.99,2.44c4.77,0.22,7.93,3.16,10.01,15.02c0.2,1.14,0.97,2.11,2.04,2.55c6.75,2.8,30.67,13.92,25.69,29.32
		c-5.63,17.42-11.18,2.03-3,22.24c0.17,0.41,0.26,0.86,0.25,1.3c-0.19,11.32-10.01,10.83-12.78,10.47
		c-0.53-0.07-1.07-0.02-1.58,0.16c-3.94,1.41-20.05,8.93-18.46,36.93c0.08,1.46-0.79,2.81-2.15,3.35
		c-9.28,3.66-10.51,13.79-10.68,16.41c-0.03,0.5-0.17,0.98-0.42,1.42c-1.24,2.22-5.7,8.16-17.15,6.06
		c-0.99-0.18-2.02,0.08-2.78,0.73c-18.86,16.15-35.58,8.69-38.91,6.93c-0.43-0.23-0.89-0.37-1.37-0.4
		c-8.3-0.55-82.1-3.36-142.31,65.75c-63.5,72.89-113.44,59.12-132.83,56.74c-0.24-0.03-0.47-0.09-0.7-0.17
		c-20.24-7.09-146.68,30.32-165.24,37.92c-7.84,3.21-48.69,12.42-97.16,4.36"/>
	<path id="outline_1_" class="st1" d="M1378.85,388.41c11.79-1.42,26.79,10.08,25.99,23.48c-1.09,18.27-11.18,2.03-3,22.24
		c0.17,0.41,0.26,0.86,0.25,1.3c-0.19,11.32-10.01,10.83-12.78,10.47c-0.53-0.07-1.07-0.02-1.58,0.16
		c-3.94,1.41-20.05,8.93-18.46,36.93c0.08,1.46-0.79,2.81-2.15,3.35c-9.28,3.66-10.51,13.79-10.68,16.41
		c-0.03,0.5-0.17,0.98-0.42,1.42c-1.24,2.22-5.7,8.16-17.15,6.06c-0.99-0.18-2.02,0.08-2.78,0.73
		c-18.86,16.15-35.58,8.69-38.91,6.93c-0.43-0.23-0.89-0.37-1.37-0.4c-8.3-0.55-82.1-3.36-142.31,65.75
		c-63.5,72.89-113.44,59.12-132.83,56.74c-0.24-0.03-0.47-0.09-0.7-0.17c-20.24-7.09-146.68,30.32-165.24,37.92
		c-7.01,2.87,39.87-147.22,98.01-136.8c73.24,13.13,180.44-104.53,259.04-101.72C1275.07,441.47,1268.78,401.63,1378.85,388.41z"/>
	<g id="dorsal">
		<path d="M598.58,428.21c0.98,5.5,4.3,10.54,8.93,13.18c4.63,2.71,10.21,3.13,15.55,2.51c5.38-0.64,10.68-2.25,15.8-4.28
			c5.14-2.03,10.1-4.58,14.96-7.29l-0.39,0.21c1.43-1.07,2.76-2.26,3.4-3.26c0.33-0.5,0.44-0.87,0.46-1.15c0.01-0.3,0-0.6-0.03-1.54
			c-0.01-0.88-0.14-2.42,0.19-4.24c0.3-1.82,1.14-3.67,2.17-4.95c1.04-1.31,2.19-2.19,3.31-2.9c1.14-0.71,2.3-1.14,3.51-1.43
			l-2.32,4.49l0,0c-0.04-3.32,0.09-6.73,1.18-10.43c0.57-1.83,1.41-3.81,3.01-5.63c0.8-0.9,1.8-1.73,2.94-2.34
			c1.14-0.61,2.37-0.98,3.55-1.13c2.37-0.3,4.41,0.12,6.19,0.68c1.78,0.57,3.34,1.34,4.81,2.16c2.92,1.66,5.45,3.58,7.87,5.59l0,0
			l-1.11-0.56c2.19,0.16,4.35,0.85,6.36,1.85c1.99,1.04,3.83,2.41,5.36,4.05c1.52,1.63,2.85,3.45,3.65,5.52
			c0.23,0.5,0.38,1.03,0.53,1.56c0.16,0.52,0.27,1.06,0.36,1.61c0.18,1.11,0.23,2.16,0.05,3.43l0,0l-0.67-0.95
			c0.58,0.44,1.44,0.95,2.23,1.36c0.81,0.43,1.66,0.8,2.53,1.15c1.74,0.69,3.55,1.22,5.4,1.65c1.86,0.39,3.75,0.69,5.66,0.84
			c0.96,0.11,1.92,0.1,2.88,0.16c0.96,0.01,1.93-0.01,2.9-0.01l0.06,0.6c-0.98,0.07-1.95,0.15-2.93,0.2
			c-0.98,0.01-1.96,0.07-2.93,0.03c-1.96-0.03-3.91-0.21-5.85-0.49c-1.93-0.31-3.85-0.75-5.72-1.35c-1.87-0.62-3.69-1.35-5.4-2.42
			l-0.11-0.07l-0.04-0.14l0,0c-0.67-1.7-1.57-3.35-2.57-4.89c-0.99-1.55-2.18-2.97-3.45-4.29c-1.29-1.31-2.75-2.44-4.33-3.39
			c-1.59-0.91-3.27-1.71-5.03-2.3l-0.1-0.03l-0.05-0.04l0,0c-2.37-1.8-4.84-3.5-7.47-4.85c-1.32-0.67-2.67-1.26-4.08-1.65
			c-1.4-0.39-2.85-0.59-4.23-0.37c-1.38,0.21-2.63,0.93-3.51,2.01c-0.9,1.07-1.46,2.42-1.84,3.82c-0.73,2.82-0.78,5.82-0.61,8.78
			l0,0l0.03,0.3l-0.29,0.2c-1.64,1.14-3.28,2.32-4.47,3.82c-0.61,0.73-1.06,1.55-1.31,2.45c-0.27,0.89-0.31,1.87-0.37,2.9
			c-0.05,1.02-0.18,2.13-0.57,3.16c-0.39,1.03-1.01,1.95-1.72,2.75c-1.43,1.59-3.17,2.77-4.93,3.84l-0.02,0.01l-0.02,0.01
			c-5.18,2.43-10.47,4.62-15.91,6.4c-5.43,1.78-11.06,3.13-16.8,3.45c-2.87,0.14-5.77,0.03-8.6-0.55c-2.82-0.58-5.59-1.61-7.99-3.24
			c-4.86-3.23-7.95-8.73-8.63-14.48L598.58,428.21z"/>
	</g>
	<g id="mouth">
		<path d="M961.86,468.05c1.13-8.62,3.95-17.06,8.42-24.58c0.5-0.98,1.17-1.84,1.77-2.76c0.62-0.9,1.22-1.82,1.86-2.71l2.06-2.55
			c0.69-0.85,1.36-1.72,2.14-2.49c1.52-1.58,2.96-3.23,4.63-4.65l2.43-2.21c0.83-0.71,1.71-1.36,2.56-2.05
			c6.88-5.42,14.52-9.8,22.44-13.46c7.93-3.66,16.16-6.61,24.51-9.12c16.73-4.95,33.92-7.98,51.14-10.27
			c17.25-2.17,34.59-3.49,51.93-4.26c17.34-0.79,34.71-0.94,52.05-0.82l25.94,0.1c8.65,0.03,17.29,0.03,25.93-0.01
			c17.29-0.08,34.57-0.31,51.84-0.8c17.27-0.45,34.52-1.31,51.79-1.93l0.39-0.01l0.3,0.04c3.17,0.47,6.35,0.94,9.51,1.28
			c3.17,0.34,6.33,0.68,9.46,0.8c3.11,0.16,6.24,0.04,9.04-0.25c1.39-0.11,2.74-0.3,3.58-0.53c0.39-0.13,0.73-0.12,1.01-0.55
			c0.3-0.41,0.36-1.23,0.25-2.05l0.53-0.45c0.46,0.23,0.86,0.52,1.21,0.92c0.36,0.39,0.66,0.88,0.82,1.49
			c0.39,1.22-0.11,2.8-0.9,3.76c-0.79,1-1.7,1.61-2.6,2.13c-0.9,0.48-1.8,0.84-2.69,1.1c-1.78,0.54-3.55,0.73-5.27,0.86
			c-1.73,0.14-3.42,0.18-5.11,0.2c-3.37,0-6.7-0.14-10.01-0.41c-3.31-0.25-6.58-0.63-9.85-1.02l0.69,0.03
			c-17.3,1.07-34.65,1.5-51.98,1.81c-17.34,0.32-34.67,0.4-52,0.33c-8.66-0.03-17.33-0.11-25.99-0.21
			c-8.66-0.13-17.32-0.31-25.98-0.5c-17.27-0.39-34.53-0.51-51.78-0.06c-17.24,0.45-34.47,1.44-51.61,3.28
			c-8.55,1.01-17.1,2.09-25.57,3.62c-8.46,1.53-16.9,3.28-25.19,5.53c-8.28,2.27-16.45,4.97-24.33,8.37
			c-7.86,3.4-15.45,7.51-22.3,12.64c-0.85,0.65-1.73,1.27-2.56,1.94l-2.43,2.1c-1.67,1.35-3.11,2.92-4.64,4.43
			c-0.78,0.73-1.46,1.56-2.15,2.38l-2.08,2.45c-0.64,0.85-1.25,1.73-1.88,2.6c-0.61,0.88-1.29,1.71-1.8,2.65
			c-4.55,7.25-7.53,15.47-8.87,23.98L961.86,468.05z"/>
	</g>
</g>
<g id="eye">
	<g id="sclera">
		<ellipse class="st2" cx="923" cy="485" rx="36" ry="27"/>
		<path d="M959.9,485c0,4.34-1.38,8.62-3.7,12.23c-2.31,3.64-5.5,6.61-9.02,9.01c-7.11,4.78-15.66,7-24.18,7.25
			c-8.52,0.1-17.23-1.82-24.69-6.46c-3.7-2.32-7.07-5.34-9.6-9.09c-2.52-3.73-4.12-8.27-4.21-12.93c0.08-4.66,1.69-9.2,4.21-12.93
			c2.52-3.76,5.89-6.78,9.6-9.09c7.46-4.64,16.17-6.54,24.69-6.49c8.53,0.19,17.07,2.48,24.22,7.21c3.55,2.36,6.73,5.39,9.03,9.04
			C958.55,476.37,959.92,480.66,959.9,485z M958.1,485c-0.27-3.97-1.73-7.76-4.17-10.77c-0.31-0.38-0.58-0.77-0.9-1.13l-1.02-1.04
			c-0.66-0.7-1.45-1.27-2.2-1.87c-1.52-1.17-3.17-2.15-4.88-2.99c-3.42-1.69-7.12-2.7-10.81-3.29l-1.38-0.23l-1.4-0.12
			c-0.93-0.07-1.85-0.19-2.78-0.2c-0.93-0.02-1.85-0.12-2.78-0.07l-2.77,0.1c-3.69,0.16-7.3,0.83-10.8,1.71
			c-0.87,0.24-1.75,0.45-2.6,0.74c-0.85,0.28-1.73,0.51-2.54,0.88c-1.69,0.6-3.33,1.32-4.92,2.14c-3.17,1.62-6.15,3.7-8.45,6.42
			c-0.28,0.34-0.59,0.67-0.86,1.03l-0.72,1.12c-0.54,0.73-0.87,1.55-1.27,2.35c-0.09,0.2-0.2,0.41-0.28,0.61l-0.19,0.64l-0.4,1.29
			c-0.16,0.43-0.17,0.88-0.26,1.33c-0.06,0.45-0.18,0.9-0.2,1.35c-0.07,3.65,1.02,7.29,2.99,10.5c1.97,3.22,4.77,5.99,8,8.19
			c6.49,4.42,14.5,6.6,22.51,6.83c8.02,0.1,16.18-1.7,23.13-5.88c3.47-2.07,6.5-4.9,8.73-8.26c0.27-0.43,0.58-0.83,0.82-1.28
			l0.64-1.37c0.48-0.89,0.74-1.87,1.06-2.82c0.08-0.24,0.16-0.47,0.22-0.72l0.12-0.74l0.25-1.48
			C958.09,486.99,958.05,485.99,958.1,485z"/>
	</g>
	<ellipse id="iris" class="st3" cx="927.5" cy="489" rx="24" ry="18.5"/>
	<ellipse id="pupil" class="st4" cx="927.5" cy="489.5" rx="15" ry="13"/>
	
		<ellipse transform="matrix(0.9609 -0.277 0.277 0.9609 -96.6941 274.3158)" class="st2" cx="922.53" cy="479.38" rx="4.97" ry="5.62"/>
</g>
<g id="pectoral_fin_1_">
	<path id="pectoral_fin" class="st5" d="M695.53,788.75c0,0-27.59-61.04,13.1-122.42c7.59-8.97,11.38-24.48,11.38-24.48
		s5.17-45.52,43.45-50c0-15.52,23.1-53.79,38.62-43.79s25.52,41.03,18.62,58.28c-6.9,17.24-44.18,63.2-52.76,68.02
		c-8.57,4.83-21.72,35.77-21.72,35.77s-1.03,10-10.69,10.69C725.88,721.51,716.57,792.2,695.53,788.75z"/>
</g>
</svg>
