<?xml version="1.0" encoding="utf-8"?>
<!-- Generator: Adobe Illustrator 24.2.3, SVG Export Plug-In . SVG Version: 6.00 Build 0)  -->
<svg version="1.1" xmlns="http://www.w3.org/2000/svg" xmlns:xlink="http://www.w3.org/1999/xlink" x="0px" y="0px"
	 viewBox="0 0 942.89 473.18" style="enable-background:new 0 0 942.89 473.18;" xml:space="preserve">
<style type="text/css">
	.st0{fill:#FFFFFF;}
	.st1{fill:#5073D6;stroke:#000000;stroke-miterlimit:10;}
	.st2{stroke:#000000;stroke-miterlimit:10;}
	.st3{opacity:0.85;fill:#FFFFFF;}
	.st4{fill:#32669E;}
	.st5{fill:#E2E8F7;stroke:#000000;stroke-miterlimit:10;}
	.st6{fill:none;stroke:#000000;stroke-width:5;stroke-miterlimit:10;}
	.st7{fill:#EAEDF4;stroke:#000000;stroke-width:5;stroke-miterlimit:10;}
	.st8{fill:#E0E1E2;}
	.st9{fill:#BFC0C1;}
</style>
<g id="eye">
	<ellipse id="sclera" class="st0" cx="490.4" cy="139.81" rx="72" ry="54"/>
	<ellipse id="iris" class="st1" cx="499.9" cy="131.81" rx="63" ry="49.5"/>
	<ellipse id="pupil" class="st2" cx="500.4" cy="133.31" rx="39.5" ry="35"/>
	
		<ellipse id="sm_shine" transform="matrix(0.9215 -0.3884 0.3884 0.9215 -23.5921 210.9018)" class="st3" cx="509.9" cy="163.81" rx="5.6" ry="4.88"/>
	
		<ellipse id="lg_shine" transform="matrix(0.931 -0.3651 0.3651 0.931 -5.1672 185.291)" class="st3" cx="487.4" cy="106.31" rx="15.25" ry="13.21"/>
</g>
<g id="body">
	<path id="blue_fill_minus_eye" class="st4" d="M938.24,95.69c4.98-15.4-18.94-26.53-25.69-29.32c-1.07-0.44-2.3-1.42-2.04-2.55
		c2.84-12.16-3.31-17.48-19.59-17.2c-7.67-5.18-150.05-24.3-157.56-22.23C672.19-3.42,631.43-1.87,586.15,22.25
		c-0.33,0.17-0.69,0.3-1.05,0.35C475.35,39.97,402.36,52.74,364.36,83.18c-0.58,0.46-1.27,0.73-2.01,0.74
		c-17.72,0.37-69.33,23.16-92.07,25.84c-23.22,2.74-31.7-3.91-27-6.15c7.17-3.4,3.26-48.18-8.2-46.73
		c-3.76,8.34-21.75,1.44-29.58,14.25c-13.78-2.22-23.13-1.88-30.71,8.25c-33.05-7.38-37.73,11-47.11,9.32
		c-1.01-0.18-1.46,1.44-1.59,2.46c-0.44,3.46-1.7,10.62-3.68-0.03c-0.19-1.03-0.92-1.81-1.79-2.39
		c-35.47-23.49-41.92-2.27-55.73-11.51c-5.64-3.78-18.8-1.95-29.86,5.11C25.43,88.47,7.1,80.43,6.76,81.1
		c-25.14,49.57,68.67,68.84,83.77,70.66c1.29,0.16,2.38,1.03,2.8,2.26c1.56,4.64,6.44,15.79,17.75,17.6
		c1.37,0.22,2.46,1.28,2.75,2.64c21.99,102.22,72.79,152.47,124.87,175.98l52.28,15.65c48.47,8.06,89.33-1.15,97.16-4.36
		c18.57-7.61,145-45.01,165.24-37.92c0.23,0.08,0.45,0.14,0.7,0.17c19.39,2.38,69.33,16.15,132.83-56.74
		c60.21-69.12,134.01-66.31,142.31-65.75c0.48,0.03,0.94,0.17,1.37,0.4c3.33,1.77,20.05,9.23,38.91-6.93
		c0.76-0.65,1.79-0.91,2.78-0.73c11.45,2.1,15.91-3.84,17.15-6.06c0.25-0.44,0.38-0.92,0.42-1.42c0.16-2.62,1.39-12.75,10.68-16.41
		c1.36-0.54,2.24-1.89,2.15-3.35c-1.59-28,14.52-35.52,18.46-36.93c0.51-0.18,1.04-0.23,1.58-0.16c2.77,0.36,12.59,0.85,12.78-10.47
		c0.01-0.44-0.09-0.89-0.25-1.3C927.06,97.73,932.61,113.11,938.24,95.69z M490.63,193.81c-39.89,0-72.23-24.25-72.23-54.17
		s32.34-54.17,72.23-54.17c39.89,0,72.23,24.25,72.23,54.17S530.53,193.81,490.63,193.81z"/>
	<g id="lashes">
		<path d="M563.9,139.31c-0.08,4.25-0.89,8.45-2.14,12.47c-1.23,4.04-3.04,7.88-5.25,11.47c-4.49,7.16-10.7,13.16-17.72,17.8
			c-7.02,4.67-14.83,8.09-22.93,10.39c-8.11,2.28-16.53,3.39-24.96,3.5c-8.42,0.04-16.88-0.93-25.07-3.08
			c-8.18-2.17-16.1-5.48-23.29-10.08c-7.17-4.59-13.64-10.52-18.42-17.77c-4.76-7.23-7.65-15.89-7.72-24.7
			c0.07-1.1-0.14-2.2-0.14-3.31c0.01-1.11-0.06-2.23,0.03-3.35c0.07-1.12,0.12-2.25,0.28-3.36l0.2-1.69c0.08-0.56,0.2-1.11,0.3-1.68
			c0.84-4.47,2.28-8.9,4.32-13.08c4.06-8.37,10.42-15.59,17.9-21.01c0.94-0.68,1.88-1.34,2.86-1.96c0.96-0.63,1.93-1.26,2.93-1.83
			c1-0.56,2.01-1.12,3.04-1.62c1.03-0.51,2.04-1.05,3.1-1.49c2.11-0.89,4.24-1.72,6.42-2.39c2.18-0.65,4.37-1.25,6.6-1.69
			c8.91-1.77,17.9-1.91,26.68-1.55c8.79,0.49,17.5,2.04,25.8,4.77c8.29,2.75,16.19,6.64,23.21,11.77
			c7.03,5.08,13.17,11.46,17.54,18.91C561.86,122.18,564.24,130.8,563.9,139.31z M560.9,139.31c-0.01-3.95-0.62-7.88-1.79-11.65
			c-1.15-3.78-2.8-7.42-4.92-10.8c-4.25-6.77-10.15-12.51-16.87-17.05c-3.39-2.22-6.97-4.18-10.71-5.79
			c-3.76-1.56-7.61-2.91-11.57-3.84c-3.97-0.9-7.98-1.57-12.03-1.86c-4.05-0.26-8.09-0.25-12.11-0.01
			c-4.02,0.32-7.99,1.37-11.71,3.07c-3.73,1.67-7.18,4-10.39,6.26c-3.2,2.34-6.2,4.53-9.21,6.4c-2.99,1.9-6.07,3.37-9.05,5.06
			c-2.98,1.66-5.93,3.35-8.87,5.16c-0.77,0.42-1.46,0.92-2.21,1.39c-0.78,0.44-1.46,0.95-2.21,1.44c-1.44,1.02-2.85,2.09-4.28,3.23
			c-2.75,2.33-5.34,5.05-7.34,8.25c-0.25,0.4-0.52,0.8-0.76,1.21l-0.68,1.26c-0.5,0.84-0.82,1.73-1.21,2.63
			c-0.71,1.8-1.36,3.7-1.57,5.65c-0.02,7.8,2.43,15.52,6.68,22.15c4.28,6.64,10.19,12.22,16.88,16.61c6.7,4.4,14.18,7.63,21.96,9.79
			c7.79,2.14,15.88,3.16,23.98,3.22c8.1-0.01,16.2-0.99,24.01-3.09c7.8-2.12,15.32-5.32,22.07-9.7c6.73-4.37,12.73-9.94,17.1-16.6
			C558.44,155.03,560.9,147.21,560.9,139.31z"/>
	</g>
	<path id="light_underside_fill" class="st5" d="M381.18,359.57c-1.83-2.9,22.86-105.84,83.87-137.45
		c98.22-1.19,180.77-78.01,223.81-91.43c18.07-9.71,70.56-20.91,103.11-22.82c67.16-45.5,120.25-41.64,120.58-41.5
		c6.75,2.8,30.67,13.92,25.69,29.32c-5.63,17.42-11.18,2.03-3,22.24c0.17,0.41,0.26,0.86,0.25,1.3
		c-0.19,11.32-10.01,10.83-12.78,10.47c-0.53-0.07-1.07-0.02-1.58,0.16c-3.94,1.41-20.05,8.93-18.46,36.93
		c0.08,1.46-0.79,2.81-2.15,3.35c-9.28,3.66-10.51,13.79-10.68,16.41c-0.03,0.5-0.17,0.98-0.42,1.42c-1.24,2.22-5.7,8.16-17.15,6.06
		c-0.99-0.18-2.02,0.08-2.78,0.73c-18.86,16.15-35.58,8.69-38.91,6.93c-0.43-0.23-0.89-0.37-1.37-0.4
		c-8.3-0.55-82.1-3.36-142.31,65.75c-63.5,72.89-113.44,59.12-132.83,56.74c-0.24-0.03-0.47-0.09-0.7-0.17
		c-20.24-7.09-146.68,30.32-165.24,37.92L381.18,359.57z"/>
	<g id="outline_front">
		<path d="M129.69,110.04c0.04,1.53,0.57,2.98,1.24,4.32c0.69,1.34,1.55,2.59,2.53,3.73c1.96,2.28,4.35,4.17,6.98,5.57
			c5.27,2.84,11.4,3.67,17.26,2.96c5.89-0.69,11.54-2.78,16.81-5.51c5.28-2.75,10.21-6.16,14.85-9.91l0,0l-0.79,1.62
			c-0.02-1.55-0.14-3.13-0.03-4.93c0.06-0.9,0.21-1.88,0.55-2.86c0.34-0.98,0.91-1.93,1.58-2.69c1.36-1.53,2.95-2.44,4.47-3.22
			c1.54-0.76,3.08-1.36,4.62-1.91l0.01,0l-1.26,2.43c-0.94-3.62-1.78-7.31-1.81-11.28c0.02-1.97,0.19-4.1,1.34-6.2
			c0.59-1.03,1.53-2,2.67-2.56c1.13-0.57,2.34-0.74,3.44-0.72c2.21,0.06,4.11,0.71,5.9,1.47c1.78,0.77,3.44,1.7,5.03,2.71
			c3.18,2.03,6.1,4.36,8.83,6.89l0.01,0.01l-0.96-0.34c2.34-0.23,4.54,0.6,6.35,1.66c1.84,1.08,3.42,2.43,4.85,3.88
			c2.85,2.92,5.16,6.23,7.16,9.69l0,0.01l-2.86-1.68c3.23-0.17,6.22,0.5,8.92,1.25c2.71,0.76,5.22,1.65,7.62,2.22
			c1.2,0.29,2.36,0.49,3.48,0.57c0.56,0.03,1.11,0.05,1.64,0.02c0.27-0.01,0.52-0.04,0.8-0.07l0.99-0.13
			c2.63-0.32,5.26-0.69,7.88-1.09c10.49-1.64,20.9-3.89,31.2-6.59c10.31-2.7,20.5-5.85,30.63-9.26c5.07-1.7,10.12-3.47,15.22-5.23
			c2.55-0.88,5.11-1.75,7.74-2.57c1.32-0.41,2.65-0.81,4.08-1.16l1.1-0.25l1.2-0.21c0.22-0.03,0.47-0.05,0.71-0.07l0.6-0.05
			c-0.01,0-0.03,0-0.03,0c-0.01,0-0.01,0,0.01-0.01l0.76-0.58l1.65-1.27c1.09-0.86,2.22-1.66,3.35-2.45c1.13-0.8,2.26-1.6,3.43-2.33
			c1.17-0.73,2.31-1.52,3.5-2.21c4.7-2.89,9.58-5.4,14.52-7.76c9.9-4.69,20.13-8.46,30.46-11.79c20.69-6.58,41.78-11.38,62.9-15.67
			c21.13-4.26,42.34-7.92,63.56-11.45l31.83-5.18l3.98-0.64l1.99-0.32c0.5-0.08,0.24-0.04,0.25-0.03l-0.03,0.01l-0.01,0.01
			c-0.01,0.01-0.01,0.01,0.04-0.02l0.45-0.24l3.64-1.89l3.68-1.82c4.94-2.37,9.99-4.55,15.15-6.46c10.32-3.83,21.15-6.54,32.17-7.72
			c11.02-1.21,22.17-0.91,33.09,0.58c10.91,1.54,21.62,4.16,31.99,7.57c10.4,3.35,20.49,7.48,30.39,11.93l-2.66-0.21
			c0.23-0.05,0.46-0.1,0.69-0.14l0.34-0.05l0.22-0.02c0.28-0.02,0.63-0.06,0.86-0.06c0.5-0.02,0.99-0.03,1.44-0.02
			c0.92,0.01,1.78,0.04,2.65,0.08c1.72,0.08,3.41,0.2,5.09,0.33c3.36,0.26,6.68,0.57,10.01,0.91c6.64,0.67,13.26,1.42,19.87,2.2
			c13.22,1.57,26.41,3.28,39.59,5.09c13.18,1.82,26.34,3.73,39.5,5.81c6.58,1.05,13.15,2.13,19.73,3.33
			c3.29,0.6,6.58,1.23,9.89,1.93c1.66,0.35,3.31,0.72,5.01,1.15c0.85,0.21,1.7,0.44,2.6,0.72c0.43,0.12,0.93,0.31,1.41,0.47
			l0.83,0.35c0.11,0.04,0.35,0.17,0.53,0.27l0.58,0.34l-2.3-0.68c2.32-0.04,4.68,0.02,7.09,0.27c2.41,0.26,4.89,0.7,7.43,1.65
			c1.27,0.48,2.55,1.1,3.78,1.94c1.23,0.84,2.4,1.92,3.34,3.2c0.95,1.28,1.64,2.75,2.06,4.21c0.42,1.46,0.59,2.91,0.62,4.29
			c0.03,1.38-0.08,2.7-0.27,3.97c-0.11,0.62-0.2,1.26-0.34,1.86l-0.1,0.46l-0.05,0.23c0.01-0.02,0.05-0.23,0.05-0.33
			c0.06-0.54-0.1-1.08-0.24-1.34c-0.3-0.54-0.36-0.44-0.28-0.42c0.03,0.02,0.09,0.06,0.13,0.07l0.77,0.32
			c1.06,0.45,2.11,0.93,3.16,1.42c4.16,1.98,8.2,4.25,12.03,7.03c3.8,2.8,7.51,6.08,10.21,10.68c1.33,2.29,2.33,4.98,2.58,7.85
			c0.13,1.43,0.08,2.89-0.16,4.29c-0.22,1.41-0.68,2.81-1.05,3.85c-0.82,2.27-1.74,4.57-3.4,6.92c-0.81,1.15-1.98,2.4-3.36,3.3
			c-0.32,0.22-0.64,0.4-0.8,0.5c-0.19,0.08-0.08,0.14,0.43-0.46c0.24-0.3,0.44-0.75,0.52-1.08c0.08-0.36,0.08-0.54,0.07-0.66
			c-0.01-0.21-0.02-0.12,0.02-0.01c0.07,0.27,0.22,0.73,0.38,1.18l0.55,1.45l1.21,3.02l1.24,3.06l0.31,0.77l0.18,0.46
			c0.1,0.27,0.19,0.54,0.26,0.83c0.14,0.57,0.23,1.17,0.22,1.83l-0.04,1.03c-0.09,1.35-0.29,2.75-0.73,4.17
			c-0.43,1.42-1.11,2.87-2.09,4.17c-0.99,1.29-2.26,2.41-3.64,3.2c-1.38,0.8-2.83,1.3-4.25,1.6c-1.42,0.29-2.8,0.4-4.16,0.38
			c-0.68-0.01-1.35-0.05-2.04-0.13l-0.26-0.03c-0.08-0.01-0.02,0-0.03,0l0.05,0c0.04,0,0.1-0.01,0.17-0.03
			c0.01,0,0.05-0.02,0.03-0.01l-0.15,0.06l-0.3,0.12l-0.61,0.26c-0.41,0.19-0.82,0.39-1.23,0.61c-0.81,0.44-1.61,0.93-2.37,1.48
			c-3.06,2.18-5.55,5.15-7.34,8.57c-1.81,3.41-2.9,7.28-3.48,11.27c-0.29,2-0.41,4.05-0.47,6.1c0.01,1.03-0.02,2.06,0.04,3.1
			l0.06,1.72c0.03,1.19-0.26,2.39-0.8,3.45c-0.54,1.06-1.34,1.98-2.3,2.66c-0.48,0.34-1.02,0.62-1.55,0.84l-0.58,0.25
			c-0.76,0.35-1.46,0.76-2.12,1.25c-1.3,0.97-2.4,2.23-3.25,3.74c-0.86,1.5-1.48,3.23-1.87,5.04c-0.19,0.9-0.33,1.84-0.38,2.7
			c-0.03,0.51-0.13,1.16-0.31,1.72c-0.09,0.29-0.2,0.57-0.32,0.85c-0.11,0.26-0.29,0.58-0.37,0.71c-0.38,0.66-0.8,1.26-1.25,1.84
			c-1.81,2.29-4.24,4.04-6.86,5.08c-2.62,1.06-5.37,1.43-7.96,1.42c-1.3-0.01-2.58-0.11-3.82-0.29l-0.93-0.15l-0.37-0.06l0.06,0.01
			c0.07,0,0.16-0.01,0.25-0.06c0.05-0.02,0.1-0.06,0.15-0.1l-0.68,0.56c-0.46,0.37-0.91,0.75-1.38,1.12
			c-0.95,0.72-1.89,1.43-2.89,2.09c-3.94,2.68-8.36,4.84-13.11,6.1c-4.74,1.27-9.78,1.58-14.67,0.86c-2.45-0.35-4.85-0.97-7.19-1.84
			c-0.59-0.22-1.17-0.46-1.75-0.71l-0.87-0.4l-0.75-0.38c0.01,0.01,0.05,0.02,0.09,0.03l0.08,0.01l-0.29-0.02l-1.56-0.08
			c-8.46-0.28-17.12,0.4-25.62,1.65c-8.52,1.27-16.95,3.21-25.19,5.72c-16.5,5.04-32.25,12.49-46.65,22.01
			c-14.42,9.5-27.48,21.04-38.95,34.01c-5.86,6.61-11.97,13.22-18.47,19.36c-6.52,6.13-13.4,11.93-20.71,17.19
			c-7.31,5.25-15.05,9.97-23.24,13.87c-4.13,1.88-8.29,3.7-12.61,5.13c-2.13,0.79-4.34,1.37-6.51,2.05c-2.21,0.56-4.4,1.17-6.64,1.6
			c-8.91,1.93-18.11,2.59-27.19,2.16c-4.54-0.21-9.06-0.69-13.48-1.32l-6.54-0.96l-1.58-0.21l-0.36-0.05
			c-0.15-0.03-0.3-0.06-0.44-0.09c-0.27-0.06-0.57-0.16-0.73-0.22l-0.53-0.15c-0.77-0.19-1.68-0.34-2.65-0.41
			c-3.91-0.3-8.25,0.02-12.5,0.47c-4.28,0.46-8.58,1.11-12.87,1.83c-8.59,1.46-17.17,3.25-25.72,5.17
			c-17.11,3.85-34.13,8.26-51.08,12.93c-8.47,2.34-16.92,4.76-25.34,7.27c-8.41,2.52-16.83,5.09-25.1,7.89
			c-2.06,0.7-4.12,1.42-6.1,2.18l-1.57,0.61c-0.59,0.22-1.15,0.41-1.72,0.59c-1.12,0.35-2.23,0.67-3.33,0.95
			c-4.41,1.15-8.8,2.02-13.22,2.76c-8.83,1.47-17.72,2.36-26.63,2.82c-17.82,0.88-35.73-0.07-53.34-3.04l0.98-5.92
			c17.16,2.8,34.65,3.66,52.03,2.72c8.68-0.48,17.35-1.4,25.89-2.86c4.27-0.74,8.52-1.6,12.63-2.7c1.03-0.27,2.04-0.57,3.02-0.88
			c0.48-0.16,0.97-0.32,1.41-0.49l1.5-0.59c2.13-0.83,4.23-1.57,6.34-2.3c8.41-2.88,16.84-5.51,25.3-8.08
			c8.46-2.56,16.93-5.03,25.43-7.43c17.01-4.78,34.09-9.28,51.34-13.25c8.63-1.97,17.3-3.8,26.08-5.32
			c4.39-0.76,8.81-1.43,13.29-1.93c4.5-0.48,8.99-0.87,13.88-0.52c1.22,0.09,2.5,0.27,3.87,0.62l1.05,0.31
			c0.1,0.03,0.07,0.02,0.06,0.02l-0.04-0.01c-0.02,0-0.06-0.01,0.05,0.01l1.69,0.22l6.54,0.94c4.3,0.6,8.55,1.04,12.82,1.23
			c8.52,0.37,17.04-0.26,25.35-2.08c2.09-0.41,4.14-0.99,6.2-1.51c2.03-0.64,4.09-1.18,6.09-1.93c4.05-1.34,7.96-3.07,11.85-4.85
			c7.72-3.7,15.07-8.2,22.05-13.25c6.98-5.05,13.59-10.65,19.89-16.6c6.3-5.98,12.14-12.34,17.95-18.93
			c11.84-13.46,25.38-25.49,40.37-35.43c14.99-9.92,31.42-17.72,48.62-22.99c8.61-2.63,17.4-4.66,26.31-5.99
			c8.92-1.32,17.9-2.05,27.06-1.76l1.74,0.08l0.54,0.04c0.3,0.03,0.6,0.08,0.89,0.14c0.58,0.13,1.14,0.33,1.65,0.58l0.72,0.36
			l0.63,0.29c0.43,0.19,0.87,0.37,1.31,0.53c1.79,0.66,3.68,1.15,5.59,1.42c3.83,0.56,7.76,0.32,11.54-0.7
			c3.78-1,7.39-2.75,10.73-5.03c0.84-0.55,1.65-1.17,2.46-1.79c0.4-0.31,0.79-0.65,1.19-0.97l0.6-0.49c0.47-0.4,0.98-0.73,1.53-0.99
			c1.09-0.53,2.28-0.77,3.46-0.72c0.29,0.01,0.59,0.04,0.88,0.09l0.45,0.07l0.71,0.11c0.94,0.13,1.86,0.2,2.77,0.21
			c3.62,0.05,6.77-1.15,8.62-3.54c0.23-0.29,0.44-0.6,0.61-0.89c0.07-0.12,0.02-0.03,0.02-0.02l-0.03,0.07
			c-0.01,0.03-0.03,0.13-0.02,0.09c0.09-1.33,0.27-2.58,0.54-3.83c0.53-2.5,1.4-4.97,2.72-7.3c1.31-2.33,3.14-4.49,5.37-6.14
			c1.11-0.83,2.32-1.54,3.56-2.11l0.94-0.4c-0.02,0-0.07,0.03-0.1,0.05c-0.07,0.05-0.12,0.11-0.17,0.19
			c-0.04,0.08-0.06,0.17-0.06,0.26l-0.06-1.59c-0.06-1.16-0.04-2.34-0.04-3.5c0.06-2.35,0.2-4.71,0.54-7.07
			c0.67-4.71,1.98-9.46,4.3-13.85c2.29-4.38,5.59-8.36,9.72-11.31c1.03-0.74,2.11-1.41,3.23-2.02c0.56-0.3,1.14-0.59,1.73-0.86
			l0.91-0.38l0.47-0.18l0.24-0.09c0.11-0.04,0.28-0.1,0.42-0.14c0.59-0.17,1.2-0.27,1.79-0.29c0.3-0.01,0.59,0,0.87,0.02l0.53,0.06
			c0.41,0.05,0.84,0.07,1.26,0.08c0.84,0.02,1.66-0.06,2.41-0.21c1.51-0.32,2.53-0.95,3.21-1.84c0.69-0.91,1.13-2.33,1.23-4.04
			l0.03-0.62c0,0.11,0.01,0.16,0.02,0.2l0.01,0.04l-0.12-0.31l-0.31-0.76l-1.25-3.06l-1.25-3.11l-0.62-1.64
			c-0.21-0.58-0.42-1.16-0.62-1.97c-0.1-0.42-0.21-0.88-0.25-1.63c-0.01-0.4,0-0.86,0.15-1.48c0.14-0.6,0.46-1.31,0.86-1.83
			c0.84-1.04,1.43-1.28,1.71-1.49l0.6-0.37c0.47-0.32,0.85-0.69,1.31-1.33c0.9-1.25,1.7-3.06,2.35-4.93
			c0.36-1.03,0.58-1.73,0.71-2.51c0.13-0.77,0.15-1.53,0.08-2.29c-0.13-1.52-0.67-3.07-1.55-4.59c-1.76-3.05-4.73-5.82-8.01-8.21
			c-3.3-2.4-6.97-4.46-10.76-6.27c-0.95-0.45-1.91-0.88-2.87-1.29l-0.75-0.32c-0.47-0.2-0.9-0.42-1.32-0.7
			c-0.84-0.57-1.76-1.23-2.56-2.75c-0.39-0.76-0.67-1.85-0.56-2.94c0.02-0.24,0.08-0.58,0.12-0.74l0.04-0.18l0.07-0.35
			c0.11-0.47,0.17-0.93,0.26-1.39c0.13-0.91,0.2-1.79,0.18-2.62c-0.03-1.67-0.42-2.97-1.14-3.94c-0.71-0.98-1.91-1.79-3.51-2.4
			c-3.23-1.2-7.42-1.48-11.55-1.42l-2.3-0.68c0.01,0.02,0.02,0.03,0.03,0.04c0,0.01,0.06,0.02-0.02-0.01l-0.32-0.13
			c-0.31-0.1-0.59-0.21-0.96-0.32c-0.68-0.21-1.44-0.42-2.2-0.61c-1.52-0.39-3.11-0.75-4.7-1.09c-3.18-0.68-6.42-1.3-9.66-1.9
			c-6.48-1.19-13.01-2.27-19.55-3.32c-13.08-2.08-26.2-4-39.33-5.83c-13.13-1.82-26.28-3.54-39.44-5.12
			c-6.58-0.79-13.16-1.54-19.73-2.2c-3.28-0.33-6.57-0.65-9.83-0.9c-1.63-0.13-3.26-0.24-4.85-0.32c-0.79-0.04-1.59-0.07-2.33-0.07
			c-0.39-0.01-0.73,0-1.05,0.01c-0.19,0-0.25,0.02-0.39,0.02l-0.09,0c0,0,0.02,0,0.03,0c0.03,0,0.06-0.01,0.08-0.03l-2.66-0.21
			c-19.33-8.75-39.44-16.01-60.2-18.94c-10.36-1.42-20.84-1.71-31.19-0.59c-10.35,1.09-20.53,3.64-30.36,7.25
			c-4.92,1.8-9.75,3.87-14.5,6.13l-3.55,1.74l-3.52,1.82l-0.44,0.23l-0.42,0.21c-0.16,0.07-0.33,0.14-0.49,0.2
			c-0.62,0.25-1.55,0.4-1.71,0.41l-1.99,0.31l-3.98,0.62l-31.81,5.07c-21.18,3.46-42.34,7.05-63.34,11.21
			c-20.99,4.19-41.89,8.89-62.18,15.27c-10.13,3.23-20.11,6.87-29.66,11.32c-4.76,2.25-9.46,4.62-13.93,7.34
			c-1.14,0.65-2.21,1.39-3.32,2.08c-1.12,0.68-2.18,1.43-3.25,2.18c-1.07,0.74-2.15,1.48-3.17,2.28l-1.55,1.18l-0.84,0.64
			c-0.52,0.4-1.11,0.73-1.75,0.96c-0.64,0.24-1.32,0.37-2,0.4l-0.7,0.06l-0.79,0.13l-0.87,0.2c-1.18,0.28-2.42,0.64-3.67,1.02
			c-2.5,0.77-5.03,1.61-7.56,2.47c-5.07,1.72-10.17,3.47-15.29,5.16c-10.25,3.38-20.61,6.53-31.11,9.21
			c-10.5,2.69-21.13,4.92-31.87,6.54c-2.69,0.39-5.38,0.76-8.08,1.07l-1.01,0.12c-0.38,0.03-0.81,0.09-1.21,0.09
			c-0.81,0.04-1.61,0.01-2.39-0.04c-1.56-0.12-3.05-0.4-4.46-0.75c-2.82-0.7-5.38-1.62-7.84-2.32c-2.45-0.71-4.79-1.19-6.95-1.08
			l-1.99,0.1l-0.87-1.78l0-0.01c-1.33-3.36-2.97-6.62-5.05-9.48c-1.04-1.42-2.21-2.75-3.52-3.8c-1.31-1.05-2.78-1.82-4.27-1.89
			l-0.65-0.03l-0.3-0.31l-0.01-0.01c-2.7-2.35-5.57-4.51-8.61-6.32c-1.52-0.9-3.08-1.71-4.67-2.34c-1.58-0.62-3.23-1.08-4.69-1.06
			c-1.49,0.03-2.45,0.54-3.04,1.65c-0.6,1.14-0.79,2.78-0.73,4.43c0.12,3.35,0.98,6.83,1.99,10.23l0.52,1.76l-1.78,0.68l-0.01,0
			c-1.45,0.52-2.86,1.07-4.17,1.72c-1.3,0.65-2.49,1.41-3.24,2.27c-0.74,0.85-1.06,1.8-1.15,3.19c-0.09,1.36,0.01,2.96,0.03,4.58
			l0.02,1.03l-0.8,0.6l0,0c-5.01,3.61-10.31,6.87-15.97,9.43c-5.65,2.55-11.7,4.42-17.94,4.8c-6.21,0.41-12.63-0.83-17.93-4.08
			c-2.65-1.6-5-3.68-6.87-6.12c-0.94-1.22-1.74-2.54-2.36-3.94C130.09,113.07,129.64,111.56,129.69,110.04z"/>
	</g>
	<path id="outline_tail" class="st6" d="M238.68,350.23c-52.08-23.5-102.88-73.76-124.87-175.98c-0.29-1.36-1.38-2.42-2.75-2.64
		c-11.31-1.8-16.19-12.96-17.75-17.6c-0.41-1.23-1.5-2.11-2.8-2.26c-15.1-1.82-108.91-21.09-83.77-70.66
		c0.34-0.67,18.67,7.37,28.26,1.25c11.06-7.06,24.22-8.89,29.86-5.11c13.81,9.24,20.26-11.98,55.73,11.51
		c0.87,0.58,1.6,1.36,1.79,2.39c1.98,10.64,3.24,3.48,3.68,0.03c0.13-1.02,0.58-2.64,1.59-2.46c9.38,1.68,14.06-16.7,47.11-9.32
		c7.58-10.13,16.93-10.47,30.71-8.25c7.83-12.81,25.81-5.92,29.58-14.25c11.47-1.45,15.37,43.33,8.2,46.73
		c-4.7,2.23,3.77,8.89,27,6.15"/>
	<path id="pectoral_fin" class="st7" d="M226.94,470.56c0,0-27.59-61.04,13.1-122.42c7.59-8.97,11.38-24.48,11.38-24.48
		s5.17-45.52,43.45-50c0-15.52,23.1-53.79,38.62-43.79s25.52,41.03,18.62,58.28c-6.9,17.24-44.18,63.2-52.76,68.02
		c-8.57,4.83-21.72,35.77-21.72,35.77s-1.03,10-10.69,10.69C257.28,403.32,247.97,474.01,226.94,470.56z"/>
	<g id="mouth">
		<path d="M580.4,149.86c0.64-7.07,2.14-14.12,4.72-20.81c2.59-6.68,6.31-12.95,10.9-18.49c4.59-5.56,10.03-10.38,15.94-14.5
			c5.91-4.11,12.26-7.57,18.83-10.46c13.18-5.75,27.1-9.42,41.12-12.1c14.04-2.61,28.22-4.26,42.43-5.21
			c14.2-0.98,28.43-1.32,42.64-1.27c14.15,0.05,28.24,0.11,42.35,0.01c14.1-0.06,28.2-0.26,42.27-0.78
			c14.08-0.47,28.12-1.4,42.2-1.98l0.65-0.03l0.46,0.09c2.54,0.49,5.09,0.98,7.62,1.33c2.53,0.34,5.04,0.7,7.49,0.82
			c1.23,0.08,2.41,0.08,3.56,0.04c1.13-0.06,2.2-0.22,3.09-0.28c0.23-0.02,0.45-0.02,0.62-0.04c0.22-0.01,0.35-0.01,0.54-0.01
			c0.3,0,0.53,0.08,0.79,0.14c0.27,0.07,0.65,0,0.96-0.42c0.33-0.4,0.57-1.08,0.75-1.84l0.75-0.5c0.45,0.19,0.84,0.42,1.18,0.74
			c0.35,0.31,0.68,0.69,0.92,1.15c0.5,0.9,0.67,2.21,0.3,3.45c-0.37,1.24-1.14,2.25-1.94,2.99c-0.79,0.7-1.66,1.23-2.46,1.6
			c-1.64,0.77-3.23,1-4.75,1.21c-1.51,0.17-2.99,0.28-4.42,0.29c-2.88,0.05-5.68-0.07-8.44-0.34c-2.77-0.25-5.47-0.64-8.18-1.03
			l1.11,0.06c-14.14,1.16-28.34,1.54-42.53,1.83c-14.19,0.28-28.37,0.35-42.54,0.28c-7.09-0.07-14.17-0.19-21.25-0.33l-21.22-0.58
			c-14.06-0.4-28.12-0.4-42.15,0.13c-14.03,0.53-28.02,1.75-41.85,3.91c-6.9,1.15-13.78,2.42-20.54,4.19
			c-6.76,1.75-13.42,3.83-19.9,6.37c-6.47,2.56-12.72,5.67-18.56,9.41c-5.83,3.75-11.23,8.19-15.84,13.37
			c-4.62,5.17-8.42,11.08-11.21,17.48c-2.79,6.4-4.57,13.24-5.51,20.21L580.4,149.86z"/>
	</g>
	<path id="blowhole" class="st2" d="M627.51,16.31c0,0,16.78-2.24,46.58,0.61C644.65,25.87,633.99,21.26,627.51,16.31z"/>
</g>
<g id="wrinkles">
	<g id="bottom_shadow">
		<path class="st8" d="M436.24,318.99c0.5,0.4,1.17,0.47,1.78,0.58c0.63,0.09,1.26,0.14,1.89,0.17c1.26,0.06,2.53,0.07,3.8,0.05
			c2.53-0.05,5.06-0.17,7.59-0.34c5.06-0.34,10.1-0.85,15.14-1.43c10.06-1.21,20.11-2.57,30.11-4.24c10-1.63,19.95-3.57,29.88-5.58
			c9.93-2.02,19.81-4.27,29.62-6.77l0.2-0.05l0.22,0.01c14.12,0.65,28.3-1.17,41.81-5.29c13.52-4.11,26.29-10.57,38-18.55
			c5.84-4.01,11.5-8.31,16.89-12.94c5.41-4.61,10.56-9.53,15.52-14.63c9.86-10.37,20.15-20.33,30.7-29.98
			c10.55-9.65,21.42-18.96,32.56-27.93c11.15-8.96,22.57-17.58,34.4-25.62c11.84-8.01,24.05-15.56,37.02-21.62
			c6.49-2.99,13.2-5.61,20.19-7.18c3.49-0.76,7.07-1.25,10.65-1.15c3.56,0.11,7.18,0.87,10.26,2.72c-3.1-1.82-6.71-2.53-10.26-2.6
			c-3.57-0.06-7.12,0.46-10.59,1.26c-6.95,1.64-13.59,4.34-20.04,7.38c-12.88,6.15-25,13.79-36.74,21.88
			c-23.44,16.3-45.4,34.66-66.39,53.99c-10.48,9.69-20.68,19.67-30.45,30.06c-9.76,10.48-20.37,20.3-32.23,28.49
			c-11.83,8.19-24.8,14.88-38.61,19.18c-13.77,4.41-28.39,6.08-42.81,5.32l0.41-0.04c-9.88,2.44-19.81,4.62-29.79,6.58
			c-9.98,1.97-20.02,3.57-30.08,5.03c-10.07,1.41-20.15,2.69-30.29,3.48c-5.07,0.4-10.14,0.73-15.22,0.89
			c-2.54,0.07-5.08,0.13-7.63,0.04c-1.27-0.04-2.54-0.1-3.81-0.23c-0.63-0.07-1.27-0.14-1.89-0.27
			C437.39,319.52,436.72,319.41,436.24,318.99z"/>
	</g>
	<g id="bottom_hl_1_">
		<path class="st9" d="M436.24,318.99c0.51,0.38,1.18,0.41,1.8,0.49c0.63,0.06,1.26,0.08,1.89,0.08c1.26,0,2.52-0.05,3.78-0.12
			c2.52-0.16,5.04-0.37,7.55-0.63c5.03-0.52,10.04-1.18,15.04-1.9c10-1.47,19.99-3.02,29.93-4.81c9.95-1.75,19.86-3.76,29.76-5.74
			c9.9-2.02,19.76-4.19,29.58-6.57l0.18-0.04l0.2,0.01c7.01,0.2,14.03-0.13,20.98-1.01c3.47-0.43,6.93-1.01,10.36-1.68
			c3.42-0.74,6.84-1.53,10.19-2.55c6.73-1.94,13.26-4.54,19.59-7.55c6.3-3.07,12.38-6.61,18.18-10.58
			c5.81-3.95,11.37-8.27,16.67-12.92c5.31-4.65,10.27-9.61,15.21-14.74c9.97-10.1,20.33-19.79,30.93-29.21
			c10.61-9.41,21.5-18.5,32.63-27.29c11.13-8.78,22.52-17.24,34.26-25.2c11.74-7.93,23.81-15.45,36.56-21.7
			c6.38-3.08,12.95-5.86,19.8-7.72c3.42-0.91,6.93-1.59,10.48-1.71c3.52-0.11,7.19,0.37,10.28,2.15c-3.11-1.75-6.76-2.19-10.27-2.04
			c-3.54,0.16-7.02,0.87-10.43,1.82c-6.81,1.93-13.32,4.77-19.65,7.91c-12.66,6.33-24.64,13.94-36.3,21.95
			c-11.65,8.04-22.94,16.59-33.99,25.44c-11.04,8.86-21.82,18.05-32.35,27.5c-10.53,9.45-20.82,19.18-30.71,29.29l-7.38,7.66
			c-2.49,2.54-5.04,5.02-7.66,7.43c-5.26,4.8-10.77,9.36-16.63,13.44c-5.86,4.09-12.03,7.74-18.44,10.92
			c-6.43,3.13-13.09,5.83-19.96,7.87c-13.7,4.23-28.15,5.82-42.44,5.31l0.37-0.04c-9.87,2.31-19.78,4.42-29.72,6.37
			c-9.94,1.98-19.93,3.63-29.94,5.2c-10.01,1.53-20.04,3-30.11,4.05c-5.04,0.53-10.08,1.01-15.14,1.34
			c-2.53,0.16-5.06,0.31-7.59,0.33c-1.27,0.01-2.54,0-3.8-0.06c-0.63-0.04-1.27-0.08-1.89-0.17
			C437.41,319.46,436.73,319.4,436.24,318.99z"/>
	</g>
	<g id="mid_shadow">
		<path class="st8" d="M429.54,304.3c9.06,0.14,18.11-0.06,27.14-0.61c9.02-0.62,18.01-1.67,26.93-3.09
			c8.93-1.37,17.77-3.25,26.52-5.46c8.75-2.23,17.41-4.8,25.92-7.8c17.01-6.02,33.61-13.2,49.6-21.6
			c16-8.37,31.46-17.75,46.49-27.77c15.08-9.96,29.75-20.55,44.26-31.35l21.73-16.3c7.23-5.45,14.51-10.85,21.88-16.13
			c7.36-5.29,14.82-10.47,22.45-15.39c7.64-4.9,15.41-9.62,23.54-13.71c4.05-2.07,8.21-3.91,12.41-5.65
			c4.24-1.65,8.52-3.18,12.92-4.36c4.4-1.15,8.85-2.11,13.37-2.59c4.52-0.45,9.07-0.53,13.58-0.18c-4.53-0.2-9.05,0.03-13.53,0.63
			c-4.48,0.6-8.88,1.65-13.21,2.9c-4.33,1.28-8.54,2.91-12.7,4.64c-4.12,1.83-8.2,3.75-12.17,5.91c-7.99,4.2-15.65,8.99-23.17,13.99
			c-7.52,5.01-14.86,10.28-22.13,15.67c-29.02,21.58-57.34,44.28-87.58,64.42c-15.15,9.99-30.75,19.36-46.89,27.7
			c-16.14,8.33-32.86,15.62-50.11,21.35c-8.62,2.89-17.38,5.34-26.21,7.45c-8.84,2.08-17.76,3.86-26.76,5.08
			c-9,1.21-18.04,2.04-27.1,2.44C447.66,304.83,438.59,304.76,429.54,304.3z"/>
	</g>
	<g id="mid_hl">
		<path class="st9" d="M429.54,304.3c9.04-0.19,18.06-0.66,27.05-1.46c8.99-0.89,17.93-2.11,26.81-3.71
			c8.88-1.57,17.68-3.56,26.39-5.87c8.71-2.31,17.32-4.99,25.79-8.05c16.94-6.12,33.49-13.35,49.42-21.77
			c15.96-8.38,31.38-17.76,46.38-27.76c15.05-9.95,29.7-20.5,44.22-31.25l21.76-16.18c7.25-5.4,14.56-10.74,21.98-15.92
			c7.42-5.19,14.93-10.25,22.63-15.03c7.7-4.78,15.6-9.25,23.8-13.15c2.03-1,4.14-1.85,6.21-2.79c2.11-0.83,4.19-1.75,6.34-2.49
			c4.24-1.62,8.61-2.89,13-4.02c4.4-1.09,8.89-1.84,13.39-2.34c4.51-0.41,9.05-0.47,13.56-0.22c-4.52-0.1-9.04,0.11-13.51,0.67
			c-4.47,0.62-8.9,1.47-13.24,2.66c-4.33,1.23-8.62,2.6-12.79,4.31c-2.11,0.78-4.15,1.75-6.22,2.62c-2.03,0.98-4.09,1.87-6.09,2.92
			c-8.06,4.01-15.86,8.55-23.43,13.43c-7.59,4.87-14.99,10.02-22.3,15.31c-29.19,21.23-57.46,43.87-87.64,63.97
			c-15.12,9.98-30.68,19.33-46.78,27.68c-16.09,8.35-32.74,15.7-49.92,21.52c-8.58,2.95-17.28,5.52-26.08,7.71
			c-8.8,2.18-17.67,4.07-26.62,5.49c-8.96,1.38-17.96,2.39-26.98,3.05C447.63,304.23,438.58,304.43,429.54,304.3z"/>
	</g>
	<g id="top_shadow_1_">
		<path class="st9" d="M454.4,251.26c3.15,1.56,6.52,2.59,9.93,3.36c3.41,0.77,6.88,1.28,10.36,1.61
			c6.97,0.68,13.98,0.62,20.96,0.33c13.97-0.67,27.87-2.78,41.42-6.11c6.78-1.65,13.48-3.64,19.98-6.09
			c6.48-2.49,12.85-5.35,18.52-9.2c1.41-0.97,2.77-1.99,4.05-3.09c1.22-1.09,2.58-2.39,3.9-3.53c2.68-2.33,5.41-4.56,8.18-6.76
			c5.54-4.37,11.19-8.57,16.88-12.7c11.39-8.26,23-16.22,34.79-23.88c5.89-3.84,11.82-7.62,17.81-11.31
			c6-3.68,12.04-7.28,18.13-10.8c12.2-7.01,24.56-13.77,37.36-19.64c6.4-2.92,12.92-5.63,19.6-7.86c3.34-1.1,6.73-2.09,10.19-2.77
			c3.45-0.68,7-1.1,10.5-0.69c-3.51-0.28-7.01,0.28-10.41,1.09c-3.41,0.81-6.75,1.86-10.04,3.05c-6.58,2.41-12.98,5.28-19.27,8.37
			c-12.58,6.19-24.82,13.05-36.84,20.27c-24,14.52-47.39,30.08-70.08,46.54c-5.66,4.13-11.27,8.34-16.75,12.68
			c-2.75,2.16-5.46,4.37-8.09,6.64c-1.34,1.15-2.52,2.27-3.92,3.52c-1.39,1.19-2.84,2.27-4.33,3.28c-6,4.02-12.53,6.95-19.19,9.4
			c-6.67,2.43-13.48,4.37-20.37,5.95c-13.79,3.1-27.85,4.87-41.96,5.24c-7.05,0.17-14.12-0.14-21.12-1.05
			C467.64,256.17,460.59,254.67,454.4,251.26z"/>
	</g>
	<g id="top_hl">
		<path class="st8" d="M454.4,251.26c4.98,2.79,10.46,4.51,16,5.67c5.56,1.15,11.22,1.72,16.88,1.94c11.33,0.43,22.7-0.42,33.89-2.2
			c5.6-0.89,11.16-2.01,16.65-3.37c5.5-1.34,10.94-2.9,16.28-4.76c5.33-1.86,10.56-4,15.58-6.53c4.98-2.55,9.82-5.49,13.82-9.23
			l0.04-0.04l0.04-0.03c13.12-10.61,26.57-20.77,40.18-30.72c13.64-9.91,27.51-19.51,41.7-28.63c14.21-9.07,28.71-17.74,43.77-25.38
			c7.54-3.79,15.25-7.27,23.17-10.19c7.92-2.86,16.12-5.31,24.57-5.68c-4.2,0.34-8.33,1.21-12.36,2.38c-4.04,1.14-8,2.54-11.9,4.09
			c-7.8,3.12-15.34,6.84-22.76,10.77c-14.85,7.87-29.14,16.75-43.15,26.04c-14.02,9.27-27.76,18.97-41.32,28.92
			c-13.56,9.94-26.91,20.19-40.03,30.68l0.09-0.07c-4.36,4.03-9.39,7.05-14.55,9.66c-5.17,2.6-10.55,4.7-15.99,6.53
			c-10.9,3.65-22.14,6.16-33.5,7.69c-5.68,0.78-11.39,1.31-17.11,1.57c-5.72,0.25-11.46,0.28-17.17-0.16
			c-5.71-0.43-11.41-1.21-16.97-2.58C464.69,256.31,459.24,254.3,454.4,251.26z"/>
	</g>
</g>
</svg>
