<svg version="1.1" xmlns="http://www.w3.org/2000/svg" xmlns:xlink="http://www.w3.org/1999/xlink" x="0px" y="0px" viewBox="0 0 1451.64 562.12" style="enable-background:new 0 0 1451.64 562.12;" xml:space="preserve">
<!-- <link xmlns="http://www.w3.org/1999/xhtml" rel="stylesheet" href="../../dist/main.css" type="text/css"/> -->
	<style>
		.waylon-logo-1 {
			fill:#000050;
		}
		
		.waylon-logo-2 {
			fill: #32669E;
			stroke:#000050;
			stroke-width:5;
			stroke-linecap:round;
			stroke-linejoin:round;
			stroke-miterlimit:10;
		}

		.waylon-logo-3 {
			fill:#000050;
			stroke:#000050;
			stroke-width:5;
			stroke-linecap:round;
			stroke-linejoin:round;
			stroke-miterlimit:10;
		}
	</style>
	<g id="waylon-logo-w">
		<path class="waylon-logo-1" d="M57.16,94.78c-2.99,0.83-5.51,2.19-7.5,3.97c-2.02,1.74-3.53,3.91-4.82,6.28c-2.51,4.8-3.98,10.5-4.87,16.46
		c-0.9,5.96-1.27,12.19-1.35,18.49c-0.08,6.31,0.15,12.69,0.55,19.1c0.82,12.83,2.34,25.75,4.22,38.64
		c1.89,12.9,4.16,25.79,6.7,38.62c2.53,12.84,5.32,25.62,8.39,38.32c3.02,12.7,6.34,25.31,9.9,37.77
		c1.79,6.23,3.62,12.42,5.57,18.56c1.91,6.14,3.88,12.24,5.86,18.29c3.98,12.09,8.1,24.01,12.6,35.4c2.23,5.7,4.6,11.24,7.07,16.53
		c2.49,5.27,5.13,10.28,7.91,14.69c2.74,4.41,5.74,8.16,8.33,10.65c1.3,1.26,2.47,2.19,3.49,2.87c1.03,0.68,1.93,1.16,3.1,1.44
		c1.16,0.27,2.64,0.27,4.44-0.19c1.78-0.46,3.86-1.33,5.94-2.64c4.21-2.59,8.57-6.54,12.54-11.09c3.97-4.59,7.7-9.75,11.08-15.23
		c3.41-5.47,6.5-11.25,9.37-17.19c5.72-11.89,10.4-24.44,14.37-37.23c3.98-12.8,7.28-25.85,10.05-39.04
		c5.56-26.38,8.74-53.33,10.81-80.37c0.69-9.02,8.56-15.78,17.59-15.09c6.95,0.53,12.56,5.33,14.45,11.63l1.02,3.46
		c7.89,26.52,16.7,52.66,25.73,78.19c4.53,12.76,9.14,25.36,13.93,37.67c4.78,12.29,9.81,24.31,15.49,35.43
		c2.83,5.55,5.8,10.87,8.91,15.77c3.1,4.89,6.36,9.37,9.57,12.98c3.16,3.63,6.37,6.34,8.45,7.43c1.02,0.53,1.7,0.7,1.83,0.58
		c0.15-0.1-0.29-0.33-0.8-0.44c-0.52-0.13-0.98-0.12-0.88-0.22c0.07-0.12,0.62-0.41,1.52-1.12c1.84-1.29,4.71-4.1,7.64-7.68
		c2.92-3.61,5.96-7.98,8.85-12.74c2.9-4.78,5.73-9.93,8.4-15.33c5.41-10.78,10.27-22.42,14.8-34.37
		c4.47-11.98,8.58-24.31,12.23-36.84c7.34-25.07,13.18-50.91,17.21-76.92c1.99-13,3.51-26.06,4.32-39.06
		c0.41-6.5,0.63-12.99,0.62-19.43c0.03-6.45-0.25-12.84-0.83-19.14c-1.15-12.57-3.58-24.88-8.77-35.39
		c-1.33-2.59-2.81-5.09-4.55-7.4c-1.75-2.27-3.71-4.42-5.97-6.29c-4.49-3.77-10.22-6.49-16.75-7.95l-0.06-0.01
		c-1.76-0.39-2.87-2.14-2.48-3.9c0.29-1.3,1.31-2.24,2.53-2.49c7.37-1.51,15.62-1.13,23.43,1.64c7.85,2.7,14.94,7.65,20.73,13.47
		c2.9,2.92,5.54,6.05,7.94,9.3c2.36,3.27,4.51,6.65,6.47,10.09c3.95,6.88,6.99,14.06,9.69,21.28c5.2,14.49,8.6,29.25,10.82,44.03
		c2.23,14.78,3.34,29.58,3.67,44.34c0.32,14.76-0.19,29.49-1.38,44.16c-1.18,14.67-3.12,29.29-5.72,43.85
		c-1.33,7.28-2.78,14.55-4.5,21.79c-1.69,7.25-3.55,14.5-5.69,21.71c-1.06,3.61-2.17,7.22-3.35,10.83
		c-1.2,3.6-2.45,7.19-3.76,10.79c-2.6,7.2-5.59,14.35-8.87,21.52c-3.34,7.15-7.02,14.3-11.32,21.42
		c-2.16,3.56-4.47,7.12-6.96,10.67c-2.51,3.56-5.25,7.08-8.25,10.61c-1.5,1.76-3.1,3.52-4.75,5.27c-1.68,1.75-3.46,3.48-5.33,5.19
		c-3.78,3.43-7.99,6.81-12.92,9.95c-4.91,3.11-10.61,5.99-17.13,8.1c-6.49,2.12-13.9,3.35-21.37,3.14
		c-7.47-0.18-14.83-1.79-21.21-4.27c-6.42-2.49-11.85-5.75-16.55-9.17c-4.66-3.44-8.6-7.08-12.05-10.73
		c-3.46-3.66-6.44-7.33-9.13-11c-5.35-7.35-9.58-14.64-13.31-21.86c-3.72-7.22-6.9-14.39-9.77-21.52
		c-5.71-14.27-10.3-28.39-14.19-42.52c-3.85-14.14-6.91-28.28-9.39-42.44c-4.95-28.32-7.62-56.65-9.86-84.83l33.06,0l-23.54,79.42
		c-7.86,26.46-15.77,52.82-25.36,79.28c-2.4,6.62-5,13.23-7.84,19.87c-2.88,6.62-6,13.26-9.81,19.86
		c-1.87,3.32-3.99,6.59-6.31,9.88c-2.33,3.28-4.96,6.53-8.04,9.66c-3.1,3.11-6.63,6.19-10.91,8.84c-4.25,2.66-9.33,4.85-14.91,6.05
		c-5.58,1.21-11.6,1.29-17.18,0.35c-5.61-0.92-10.75-2.75-15.31-4.95c-4.58-2.21-8.63-4.78-12.3-7.52
		c-3.67-2.73-6.97-5.61-10.05-8.56c-6.11-5.92-11.3-12.11-15.94-18.44c-4.66-6.32-8.75-12.79-12.5-19.33
		c-14.87-26.21-24.05-53.72-30.65-81.53c-6.63-27.8-10.82-55.94-12.53-84.34c-0.82-14.2-1.02-28.47-0.4-42.78
		C1,185.4,2.42,171.03,5.14,156.67c1.35-7.18,3.07-14.35,5.26-21.48c2.22-7.12,4.89-14.23,8.51-21.12
		c1.78-3.45,3.89-6.82,6.27-10.07c2.39-3.25,5.18-6.34,8.46-9.03c3.25-2.7,7.13-4.9,11.26-6.12c4.14-1.21,8.45-1.32,12.27-0.47
		c1.77,0.39,2.88,2.14,2.49,3.91c-0.27,1.22-1.19,2.13-2.32,2.45L57.16,94.78z"/>
	</g>
	<g id="waylon-logo-a">
		<path class="waylon-logo-1" d="M522.52,355.75c2.97-4.13,6.48-7.92,10.41-11.14c3.92-3.24,8.27-5.86,12.72-7.97
		c8.97-4.16,18.52-5.88,27.58-5.64c9.08,0.22,17.73,2.37,25.47,5.81c7.75,3.47,14.6,8.26,20.42,13.73
		c5.82,5.5,10.65,11.87,14.35,18.69c3.72,6.81,6.32,14.11,7.69,21.57c1.35,7.47,1.46,15.14,0.04,22.59
		c-0.67,3.73-1.83,7.37-3.29,10.86c-1.48,3.49-3.32,6.83-5.53,9.9c-2.18,3.09-4.74,5.92-7.56,8.45c-2.83,2.52-5.89,4.8-9.2,6.65
		c-6.58,3.77-13.88,6.15-21.38,7.31c-7.51,1.13-15.25,1.04-22.9-0.27c-7.66-1.28-15.25-3.78-22.34-7.5
		c-7.07-3.73-13.81-8.65-19.62-14.85c-5.77-6.21-10.62-13.68-13.78-22.2c-3.18-8.49-4.65-18.09-3.63-27.92
		c0.55-4.9,1.61-9.86,3.4-14.62C517.13,364.45,519.58,359.9,522.52,355.75z M548.76,374.48c-2.89,4.05-4.74,8.78-5.44,13.78
		c-0.71,5-0.27,10.26,1.16,15.31c2.86,10.16,9.68,19.29,18.52,25.6c8.84,6.31,19.69,9.8,30.23,9.2
		c5.25-0.29,10.36-1.58,14.86-3.88c4.51-2.29,8.37-5.57,11.27-9.62c2.89-4.05,4.74-8.78,5.44-13.78c0.71-5,0.27-10.26-1.16-15.31
		c-2.86-10.16-9.68-19.29-18.52-25.6c-8.84-6.31-19.69-9.8-30.23-9.2c-5.25,0.29-10.36,1.58-14.86,3.88
		C555.53,367.15,551.66,370.43,548.76,374.48z"/>
		<path class="waylon-logo-1" d="M526.79,300.14c0.72-2.94,1.55-5.66,2.49-8.44c0.94-2.76,1.99-5.49,3.17-8.19
		c2.38-5.38,5.19-10.69,9.06-15.6c1.92-2.46,4.16-4.79,6.77-6.88c2.63-2.06,5.7-3.87,9.2-4.96c3.47-1.11,7.32-1.45,10.95-1.01
		c3.64,0.44,7.06,1.56,10.15,3.02c3.09,1.46,5.87,3.24,8.45,5.16c2.56,1.93,4.97,3.99,7.17,6.15c4.47,4.3,8.35,8.93,11.99,13.67
		c3.63,4.84,6.95,9.38,10.29,14.11c3.33,4.71,6.59,9.49,9.76,14.35c6.34,9.72,12.35,19.75,17.83,30.23
		c5.48,10.48,10.45,21.41,14.5,33.02c2.02,5.81,3.8,11.8,5.22,18.02c1.42,6.22,2.48,12.68,2.95,19.46
		c0.44,6.79,0.34,13.9-1.07,21.58c-0.73,3.86-1.77,7.83-3.63,12.21c-0.96,2.2-2.08,4.48-3.95,7.17c-0.47,0.67-1.01,1.39-1.66,2.16
		c-0.65,0.77-1.4,1.6-2.44,2.57c-0.26,0.24-0.53,0.48-0.86,0.76l-0.48,0.4l-0.56,0.43c-0.34,0.26-0.85,0.62-1.29,0.91l-0.82,0.51
		l-0.42,0.25l-0.52,0.29c-1.38,0.7-3.03,1.6-6.4,2.3c-0.43,0.08-0.96,0.17-1.44,0.23c-0.51,0.06-0.95,0.11-1.52,0.14
		c-0.63,0.03-1.26,0.04-1.89,0.02c-0.61-0.02-1.24-0.06-2.08-0.17c-0.78-0.1-1.55-0.25-2.31-0.43c-0.8-0.19-1.75-0.49-2.59-0.81
		c-1.66-0.62-3.55-1.63-5.13-2.81c-9.32-6.93-11.25-20.11-4.32-29.42c6.93-9.32,20.11-11.25,29.42-4.32
		c-1.5-1.13-3.33-2.09-4.89-2.69c-0.8-0.31-1.71-0.59-2.47-0.77c-0.72-0.18-1.45-0.31-2.18-0.41c-0.79-0.1-1.38-0.14-1.95-0.16
		c-0.59-0.02-1.18-0.01-1.76,0.02c-0.53,0.03-0.92,0.07-1.39,0.12c-0.44,0.05-0.92,0.13-1.31,0.21c-3.02,0.63-4.35,1.39-5.41,1.92
		l-0.71,0.41l-0.59,0.38c-0.29,0.19-0.65,0.45-0.85,0.61l-0.34,0.27l-0.27,0.23l-0.46,0.41c-0.52,0.5-0.77,0.82-0.96,1.07
		c-0.18,0.24-0.28,0.41-0.33,0.52c-0.18,0.43,0.1,0.24,0.36-0.09c0.58-0.71,1.31-2.13,1.9-3.75c1.22-3.3,2.04-7.52,2.41-12
		c0.75-9.02-0.18-19.12-2.11-29.22c-1.94-10.14-4.88-20.41-8.44-30.59c-3.57-10.18-7.77-20.3-12.39-30.29
		c-2.31-5-4.73-9.97-7.25-14.91c-2.52-4.9-5.1-9.98-7.81-14.48c-2.74-4.56-5.66-8.98-8.9-12.91c-3.22-3.94-6.78-7.47-10.57-9.86
		c-1.89-1.19-3.83-2.06-5.75-2.55c-1.93-0.48-3.85-0.56-5.82-0.2c-3.95,0.67-8.04,3.35-11.59,6.93c-3.58,3.58-6.67,8-9.4,12.65
		c-1.36,2.34-2.63,4.76-3.8,7.23c-1.16,2.45-2.28,5.03-3.19,7.49l-0.04,0.09c-0.58,1.55-2.31,2.35-3.86,1.77
		C527.22,303.13,526.43,301.6,526.79,300.14z"/>
	</g>
	<g id="waylon-logo-y">
		<path class="waylon-logo-2" d="M1108.5,3.73c-21.37,2.47-29,72-67,54s-244,82-237,91s-17,24-17,24s-23.74-16-16.74-25s-199-109-237-91
		s-45.63-51.53-67-54c-63.78-7.36-116,165,122,226c278,120,115.93,231.3,146,312c9.23,24.77,93.32,24.34,105.74,1
		c40.45-76.03-132-192,146-312C1224.5,168.73,1172.28-3.63,1108.5,3.73z"/>
		<path class="waylon-logo-3" d="M1108.16,4.08c-21.37,2.47-29,72-67,54c-38-18-230.44,81.67-237,91c-17.24,24.5-17,24-17,24
		s0.76,0.5-16.74-25c-6.45-9.4-199-109-237-91s-45.63-51.53-67-54c-63.78-7.36-116,165,122,226c278,120,115.93,231.3,146,312
		c9.23,24.77,93.32,24.34,105.74,1c40.45-76.03-132-192,146-312C1224.16,169.08,1171.94-3.28,1108.16,4.08z M968.92,218.58
		c-253.85,109.57-115,246-138,316c-6.39,19.43-80.05,20.54-84.6,0.6c-15.4-67.6,113.44-208.02-140.4-317.6
		c-217.32-55.7-194.81-177.81-138-181c25.02-1.41,52.66,65.57,87.36,49.14c34.7-16.44,210.62,74.44,216.41,83.09
		c15.23,22.77,15.28,22.83,15.28,22.83s-0.05-0.06,15.52-21.91c6.04-8.48,181.71-99.53,216.41-83.09
		c34.7,16.44,64.34-51.91,90.02-50.05C1166.18,40.73,1186.24,162.88,968.92,218.58z"/>
	</g>
	<g id="waylon-logo-l">
		<path class="waylon-logo-1" d="M923.44,450.82c9.91-8.45,19.6-17.14,29.01-26.09c9.44-8.92,18.63-18.07,27.47-27.52
		c17.67-18.88,34.21-38.77,48.49-59.99c7.14-10.59,13.78-21.47,19.55-32.69c5.75-11.2,10.72-22.75,14.08-34.4
		c1.65-5.81,2.96-11.64,3.52-17.22c0.28-2.78,0.37-5.5,0.21-7.97c-0.15-2.46-0.61-4.71-1.21-6.15c-0.3-0.71-0.61-1.2-0.81-1.38
		c-0.2-0.2-0.21-0.08-0.06,0.05c0.11,0.14,0.38,0.22,0.14,0.23c-0.29,0.01-1.09,0.06-2.03,0.23c-1.96,0.37-4.45,1.14-6.97,2.13
		c-2.53,0.99-5.15,2.22-7.76,3.55c-5.23,2.68-10.45,5.84-15.54,9.24c-5.1,3.4-10.11,7.04-14.94,10.92
		c-9.69,7.71-18.86,16.14-27.21,25.08c-4.18,4.47-8.12,9.09-11.82,13.77c-1.85,2.34-3.61,4.72-5.27,7.12
		c-1.67,2.39-3.27,4.79-4.73,7.2c-1.46,2.41-2.79,4.84-3.95,7.25c-1.17,2.4-2.19,4.76-2.97,7.09c-0.81,2.34-1.45,4.68-1.89,7.05
		c-0.47,2.36-0.74,4.73-0.81,7.11c-0.18,4.76,0.37,9.59,1.67,14.44c1.31,4.84,3.31,9.71,5.92,14.47
		c5.24,9.53,12.74,18.57,21.33,26.9c8.63,8.32,18.34,16,28.6,23.17c10.24,7.23,21.12,13.78,32.17,20.35l0.04,0.03
		c3.82,2.27,5.08,7.21,2.81,11.04c-1.94,3.26-5.83,4.66-9.3,3.58c-12.8-3.95-25.28-9.08-37.49-15.13
		c-12.17-6.12-24-13.33-35.05-22.13c-11.01-8.81-21.38-19.21-29.51-32.12c-4.05-6.44-7.51-13.53-9.89-21.2
		c-2.43-7.64-3.7-15.88-3.58-24.15c0.07-4.13,0.48-8.27,1.23-12.31c0.76-4.04,1.84-8,3.18-11.82c2.74-7.68,6.42-14.42,10.45-20.61
		c4.01-6.21,8.45-11.88,13.11-17.2c4.64-5.34,9.55-10.31,14.61-15.05c10.12-9.46,20.83-18.02,32.08-25.85
		c11.29-7.79,22.95-15,35.99-20.87c3.28-1.46,6.66-2.83,10.26-4.02c3.62-1.18,7.42-2.24,11.92-2.81c2.28-0.25,4.76-0.41,7.72-0.08
		c3,0.31,6.46,1.36,9.39,3.16c2.96,1.78,5.35,4.22,7.03,6.67c1.71,2.47,2.81,4.95,3.6,7.31c1.53,4.73,1.92,9.03,1.97,13.07
		c0.03,4.04-0.34,7.85-0.92,11.53c-1.16,7.35-3.12,14.2-5.49,20.78c-4.76,13.15-11,25.28-17.93,36.85
		c-6.95,11.55-14.63,22.53-22.83,33.01c-8.22,10.47-16.94,20.47-26,30.09c-9.07,9.61-18.48,18.86-28.24,27.69
		c-9.74,8.85-19.75,17.36-29.99,25.55c-10.27,8.16-20.76,16-31.42,23.58c-0.72,0.51-1.72,0.34-2.23-0.38
		C922.69,452.29,922.82,451.35,923.44,450.82z"/>
	</g>
	<g id="waylon-logo-o">
		<path class="waylon-logo-1" d="M1065.44,379.94c-0.16-10.15,1.68-20.37,5.43-29.82c3.74-9.46,9.36-18.14,16.41-25.41
		c7.06-7.27,15.61-13.05,24.9-17c9.3-3.96,19.38-6.02,29.4-6.1c10.02-0.08,20.08,1.81,29.36,5.57c9.29,3.74,17.74,9.37,24.88,16.29
		c7.14,6.92,12.91,15.25,16.86,24.37c3.96,9.12,6.07,19.04,6.23,28.93c0.25,9.89-1.44,19.88-5.02,29.16
		c-3.57,9.28-8.99,17.84-15.84,25.05c-6.84,7.21-15.05,13.18-24.18,17.31c-9.11,4.15-19.09,6.45-29.1,6.79
		c-10.01,0.33-20.17-1.31-29.63-4.88c-9.45-3.57-18.24-8.98-25.59-15.96c-7.34-6.98-13.32-15.41-17.45-24.71
		C1067.96,400.23,1065.7,390.09,1065.44,379.94z M1097.43,379.28c0.03,3.02,0.35,6.02,0.95,8.95c0.6,2.93,1.37,5.84,2.49,8.65
		c2.17,5.63,5.38,10.95,9.48,15.65c4.12,4.68,9.14,8.74,14.88,11.78c5.72,3.06,12.17,5.09,19,5.76c6.82,0.65,13.89,0.02,20.68-2.14
		c6.78-2.16,13.26-5.82,18.73-10.76c5.49-4.93,9.95-11.12,12.93-18.01c1.45-3.45,2.64-7.05,3.34-10.75
		c0.69-3.71,1.02-7.49,0.99-11.28c-0.12-3.79-0.61-7.55-1.46-11.23c-0.85-3.68-2.18-7.22-3.78-10.61
		c-3.26-6.76-7.98-12.76-13.66-17.46c-5.67-4.71-12.3-8.1-19.16-9.98c-6.88-1.87-13.97-2.21-20.75-1.28
		c-6.8,0.95-13.16,3.25-18.75,6.54c-5.61,3.27-10.45,7.53-14.38,12.38c-3.91,4.87-6.89,10.32-8.83,16.03
		c-1.01,2.85-1.65,5.79-2.13,8.74C1097.53,373.25,1097.34,376.26,1097.43,379.28z"/>
	</g>
	<g id="waylon-logo-n">
		<path class="waylon-logo-1" d="M1212.74,434.79c-0.01,0.03,0.03-0.03,0.05-0.06l0.1-0.14l0.21-0.31l0.45-0.68l0.92-1.44
		c0.61-0.98,1.23-1.99,1.82-3.02c1.2-2.05,2.37-4.15,3.5-6.28c2.27-4.26,4.4-8.63,6.35-13.07c3.9-8.89,7.26-18.05,9.77-27.38
		c2.5-9.33,4.26-18.83,5.05-28.35c0.76-9.52,0.46-19.06-1.01-28.37c-1.48-9.31-4.13-18.42-8.13-26.98
		c-1.99-4.28-4.3-8.43-6.88-12.42c-2.6-3.98-5.48-7.81-8.61-11.46l-1.17-1.37l-0.8-0.94c-0.13-0.15-0.42-0.56-0.6-0.85
		c-0.18-0.27-0.41-0.67-0.68-1.28c-0.22-0.51-0.44-1.06-0.63-2.03c-0.16-0.78-0.24-1.79-0.08-3c0.14-1.12,0.51-2.2,1.06-3.21
		c0.54-0.96,1.03-1.54,1.69-2.2c0.5-0.47,0.94-0.81,1.46-1.15c0.42-0.27,0.71-0.41,1.09-0.6c1.24-0.56,1.99-0.7,2.54-0.81
		c1.13-0.2,1.77-0.21,2.39-0.23c0.59-0.01,1.09,0.01,1.56,0.04c0.94,0.05,1.74,0.15,2.52,0.25c3.07,0.42,5.75,1,8.45,1.62
		c5.34,1.27,10.47,2.74,15.57,4.28c10.17,3.13,20.11,6.73,29.89,10.68c9.79,3.94,19.37,8.33,28.84,12.93
		c9.46,4.63,18.73,9.63,27.77,15.05c9.04,5.41,17.83,11.24,26.29,17.55c8.65,6.31,16.55,13.59,23.81,21.33
		c14.49,15.57,26.43,33.13,36.82,51.46c5.22,9.16,9.98,18.57,14.5,28.12c1.12,2.39,2.21,4.8,3.28,7.22
		c1.08,2.42,2.16,4.83,3.19,7.28c1.05,2.44,2.03,4.9,3.06,7.37l1.49,3.74c0.49,1.28,0.97,2.47,1.48,3.89l0.04,0.12
		c1.49,4.18-0.69,8.77-4.86,10.26s-8.77-0.69-10.26-4.86c-0.14-0.4-0.26-0.84-0.33-1.25c-0.2-1.06-0.48-2.36-0.76-3.55l-0.91-3.66
		c-0.61-2.45-1.33-4.88-2.05-7.31c-0.73-2.43-1.48-4.86-2.28-7.27c-0.82-2.41-1.66-4.81-2.54-7.2
		c-3.46-9.58-7.56-18.93-12.12-28.04c-9.19-18.17-20.51-35.35-34.41-50.04c-6.96-7.32-14.56-13.96-22.83-19.64
		c-8.42-5.73-17.16-11-26.12-15.86c-17.93-9.71-36.72-17.89-56.02-24.41c-9.64-3.28-19.4-6.2-29.2-8.61
		c-4.89-1.21-9.81-2.27-14.64-3.05c-2.39-0.38-4.81-0.71-6.9-0.84c-0.51-0.03-1-0.04-1.35-0.03c-0.18,0-0.32,0.02-0.38,0.03
		c-0.03,0.01-0.03,0.04,0.46-0.03c0.23-0.05,0.66-0.1,1.61-0.53c0.31-0.15,0.52-0.26,0.87-0.48c0.46-0.29,0.83-0.58,1.27-1
		c0.61-0.6,1.04-1.12,1.54-2c0.52-0.93,0.84-1.95,0.99-2.98c0.14-1.13,0.06-2.06-0.07-2.76c-0.19-0.89-0.37-1.36-0.56-1.8
		c-0.24-0.53-0.44-0.86-0.56-1.06c-0.14-0.23-0.39-0.57-0.46-0.66c-0.11-0.14-0.22-0.27-0.34-0.4c-0.14-0.15,0.01,0.01,0.01,0
		l0.18,0.19l1.44,1.5c15.53,15.92,26.73,36.68,31.69,58.74c2.53,11.02,3.58,22.31,3.53,33.5c-0.04,11.19-1.23,22.3-3.25,33.19
		c-2.07,10.88-4.84,21.58-8.4,32.02c-1.78,5.22-3.7,10.4-5.81,15.53c-1.06,2.57-2.16,5.12-3.34,7.68l-1.81,3.85l-0.96,1.96
		l-0.51,1.01l-0.28,0.53l-0.35,0.63c-4.58,7.56-14.42,9.97-21.97,5.4S1208.16,442.35,1212.74,434.79z"/>
	</g>
</svg>
