<?xml version="1.0" encoding="utf-8"?>
<!-- Generator: Adobe Illustrator 24.3.0, SVG Export Plug-In . SVG Version: 6.00 Build 0)  -->
<svg version="1.1" xmlns="http://www.w3.org/2000/svg" xmlns:xlink="http://www.w3.org/1999/xlink" x="0px" y="0px"
	 viewBox="0 0 863.64 371.91" style="enable-background:new 0 0 863.64 371.91;" xml:space="preserve">
<style type="text/css">
	.st0{fill:#97A5AD;stroke:#000000;stroke-width:2;stroke-miterlimit:10;}
	.st1{fill:#7F3C3C;stroke:#000000;stroke-miterlimit:10;}
	.st2{fill:#B7B7B7;stroke:#000000;stroke-width:0.5;stroke-miterlimit:10;}
	.st3{fill:#595959;stroke:#000000;stroke-width:0.5;stroke-miterlimit:10;}
	.st4{fill:#A3A3A3;stroke:#000000;stroke-width:0.5;stroke-miterlimit:10;}
	.st5{fill:#FFFFFF;stroke:#000000;stroke-width:0.5;stroke-miterlimit:10;}
	.st6{fill:#A8A8A8;stroke:#000000;stroke-width:0.5;stroke-miterlimit:10;}
	.st7{fill:#78798C;stroke:#000000;stroke-width:3;stroke-miterlimit:10;}
	.st8{fill:#333333;stroke:#000000;stroke-miterlimit:10;}
	.st9{fill:#CFD1E2;stroke:#000000;stroke-width:2;stroke-miterlimit:10;}
	.st10{fill:#E5E5E5;}
	.st11{fill:#78798E;}
	.st12{fill:none;stroke:#000000;stroke-width:3;stroke-miterlimit:10;}
	.st13{fill:none;stroke:#000000;stroke-width:2;stroke-miterlimit:10;}
	.st14{fill:#78798E;stroke:#000000;stroke-width:2;stroke-linejoin:round;stroke-miterlimit:10;}
	.st15{fill:#717196;}
	.st16{fill:#2B2B2B;stroke:#000000;stroke-miterlimit:10;}
</style>
<g id="Shark-right-pelvic-fin">
	<path class="st0" d="M545.65,221.63c0.08,3.84-4.81,12.22-1.67,21.2c2.71,7.75-40.75-18.33-40.75-18.33L545.65,221.63z"/>
</g>
<g id="Shark-inner-mouth">
	<path class="st1" d="M85.23,165.54c4.88,5.79,10.65,19.38,9.55,24.04c-7.81,32.91-47.42,55.55-38.5,66.91
		c2.02,2.58,101.82-75.94,83.47-79.42c0,0-79.16-72.12-107.48-46.87C29.27,132.88,66.71,143.57,85.23,165.54z"/>
</g>
<g id="Shark-lower-teeth-right">
	<path class="st2" d="M60.73,242.83c-0.02-0.62,0.19-0.87-0.62-0.33c-0.51,0.33-0.88,2.06-2.39,1.27c-2.46-1.29-3.4-1.62-3.4-1.62
		s2.09,2.52,2.3,2.85c0.28,0.43,0.89,1.89,0.65,2.5c-0.21,0.54,0.3,1.12,0.59,0.91C58.45,247.98,60.76,243.83,60.73,242.83z"/>
	<path class="st2" d="M63.05,241.05c0.14-0.58,0.41-0.75-0.53-0.49c-0.59,0.16-1.4,1.66-2.69,0.47c-2.1-1.95-2.94-2.54-2.94-2.54
		s1.42,2.98,1.54,3.35c0.17,0.49,0.39,2.04,0,2.53c-0.34,0.44,0.01,1.14,0.34,1.03C59.47,245.19,62.81,242,63.05,241.05z"/>
	<path class="st2" d="M64.76,237.08c0.14-0.58,0.41-0.75-0.53-0.49c-0.59,0.16-1.4,1.66-2.69,0.47c-2.1-1.95-2.94-2.54-2.94-2.54
		s1.42,2.98,1.54,3.35c0.17,0.49,0.39,2.04,0,2.53c-0.34,0.44,0.01,1.14,0.34,1.03C61.18,241.22,64.52,238.02,64.76,237.08z"/>
	<path class="st2" d="M68.55,233.57c0.14-0.58,0.41-0.75-0.53-0.49c-0.59,0.16-1.4,1.66-2.69,0.47c-2.1-1.95-2.94-2.54-2.94-2.54
		s1.42,2.98,1.54,3.35c0.17,0.49,0.39,2.04,0,2.53c-0.34,0.44,0.01,1.14,0.34,1.03C64.97,237.71,68.32,234.52,68.55,233.57z"/>
	<path class="st2" d="M72.36,230.29c0.14-0.58,0.41-0.75-0.53-0.49c-0.59,0.16-1.4,1.66-2.69,0.47c-2.1-1.95-2.94-2.54-2.94-2.54
		s1.42,2.98,1.54,3.35c0.17,0.49,0.39,2.04,0,2.53c-0.34,0.44,0.01,1.14,0.34,1.03C68.78,234.42,72.13,231.23,72.36,230.29z"/>
	<path class="st2" d="M75.86,225.91c0.14-0.58,0.41-0.75-0.53-0.49c-0.59,0.16-1.4,1.66-2.69,0.47c-2.1-1.95-2.94-2.54-2.94-2.54
		s1.42,2.98,1.54,3.35c0.17,0.49,0.39,2.04,0,2.53c-0.34,0.44,0.01,1.14,0.34,1.03C72.28,230.05,75.62,226.86,75.86,225.91z"/>
	<path class="st2" d="M58.5,248.2c0-0.6,0.22-0.83-0.63-0.35c-0.53,0.3-0.96,1.95-2.5,1.1c-2.5-1.38-3.46-1.75-3.46-1.75
		s2.1,2.55,2.31,2.88c0.28,0.43,0.87,1.88,0.61,2.46c-0.23,0.51,0.29,1.1,0.58,0.92C56.02,253.08,58.5,249.17,58.5,248.2z"/>
	<path class="st2" d="M79.82,222.67c0.14-0.58,0.41-0.75-0.53-0.49c-0.59,0.16-1.4,1.66-2.69,0.47c-2.1-1.95-2.94-2.54-2.94-2.54
		s1.42,2.98,1.54,3.35c0.17,0.49,0.39,2.04,0,2.53c-0.34,0.44,0.01,1.14,0.34,1.03C76.25,226.8,79.59,223.61,79.82,222.67z"/>
	<path class="st3" d="M83.24,218.53c0.14-0.58,0.41-0.75-0.53-0.49c-0.59,0.16-1.4,1.66-2.69,0.47c-2.1-1.95-2.94-2.54-2.94-2.54
		s1.42,2.98,1.54,3.35c0.17,0.49,0.39,2.04,0,2.53c-0.34,0.44,0.01,1.14,0.34,1.03C79.66,222.66,83.01,219.47,83.24,218.53z"/>
	<path class="st3" d="M84.35,218.16c0.06-0.58,0.28-0.79-0.54-0.4c-0.51,0.24-1.07,1.82-2.38,0.86c-2.14-1.57-2.97-2.02-2.97-2.02
		s1.65,2.68,1.81,3.02c0.21,0.45,0.6,1.92,0.31,2.46c-0.26,0.48,0.15,1.1,0.44,0.95C81.61,222.71,84.25,219.11,84.35,218.16z"/>
	<path class="st3" d="M86.37,216c0.13-0.55,0.38-0.71-0.5-0.48c-0.55,0.14-1.31,1.57-2.52,0.41c-1.98-1.89-2.77-2.47-2.77-2.47
		s1.35,2.87,1.47,3.23c0.16,0.47,0.38,1.95,0.02,2.42c-0.32,0.42,0.02,1.09,0.33,0.99C83.04,219.9,86.16,216.89,86.37,216z"/>
	<path class="st3" d="M87.95,212.22c0.13-0.55,0.38-0.71-0.5-0.48c-0.55,0.14-1.31,1.57-2.52,0.41c-1.98-1.89-2.77-2.47-2.77-2.47
		s1.35,2.87,1.47,3.23c0.16,0.47,0.38,1.95,0.02,2.42c-0.32,0.42,0.02,1.09,0.33,0.99C84.62,216.12,87.74,213.12,87.95,212.22z"/>
	<path class="st3" d="M91.49,208.93c0.13-0.55,0.38-0.71-0.5-0.48c-0.55,0.14-1.31,1.57-2.52,0.41c-1.98-1.89-2.77-2.47-2.77-2.47
		s1.35,2.87,1.47,3.23c0.16,0.47,0.38,1.95,0.02,2.42c-0.32,0.42,0.02,1.09,0.33,0.99C88.16,212.83,91.28,209.83,91.49,208.93z"/>
	<path class="st3" d="M95.05,205.84c0.13-0.55,0.38-0.71-0.5-0.48c-0.55,0.15-1.31,1.57-2.52,0.41c-1.98-1.89-2.77-2.47-2.77-2.47
		s1.35,2.87,1.47,3.23c0.16,0.47,0.38,1.95,0.02,2.42c-0.32,0.42,0.02,1.09,0.33,0.99C91.72,209.74,94.84,206.74,95.05,205.84z"/>
	<path class="st3" d="M92.67,206.6c0.13-0.55,0.38-0.71-0.5-0.48c-0.55,0.15-1.31,1.57-2.52,0.41c-1.98-1.89-2.77-2.47-2.77-2.47
		s1.35,2.87,1.47,3.23c0.16,0.47,0.38,1.95,0.02,2.42c-0.32,0.42,0.02,1.09,0.33,0.99C89.34,210.5,92.46,207.5,92.67,206.6z"/>
	<path class="st3" d="M80.27,222.42c0.24-0.5,0.5-0.66-0.35-0.38c-0.54,0.18-1.54,1.5-2.41,0.59c-1.42-1.48-2.03-1.91-2.03-1.91
		s0.63,2.39,0.67,2.69c0.05,0.4-0.07,1.68-0.5,2.12c-0.38,0.39-0.21,0.95,0.09,0.84C76.37,226.16,79.88,223.23,80.27,222.42z"/>
	<path class="st3" d="M66.05,237.81c0.21-0.47,0.44-0.65-0.3-0.29c-0.46,0.22-1.33,1.52-2.06,0.82c-1.19-1.14-1.7-1.45-1.7-1.45
		s0.5,2.05,0.53,2.32c0.04,0.35-0.08,1.5-0.45,1.95c-0.33,0.4-0.2,0.87,0.07,0.73C62.68,241.6,65.71,238.58,66.05,237.81z"/>
	<path class="st3" d="M69.27,234.77c0.21-0.47,0.44-0.65-0.3-0.29c-0.46,0.22-1.33,1.52-2.06,0.82c-1.19-1.14-1.7-1.45-1.7-1.45
		s0.5,2.05,0.53,2.32c0.04,0.35-0.08,1.5-0.45,1.95c-0.33,0.4-0.2,0.87,0.07,0.73C65.9,238.56,68.93,235.54,69.27,234.77z"/>
</g>
<g id="Shark-lower-teeth-left">
	<path class="st4" d="M72.05,245.53c0.29-0.62,0.66-0.8-0.59-0.54c-0.78,0.17-2.1,1.77-3.54,0.47c-2.35-2.11-3.32-2.75-3.32-2.75
		s1.29,3.21,1.39,3.61c0.13,0.52,0.14,2.19-0.45,2.71c-0.52,0.47-0.19,1.22,0.26,1.11C66.72,249.92,71.58,246.54,72.05,245.53z"/>
	<path class="st4" d="M65.87,249.17c0.29-0.62,0.66-0.8-0.59-0.54c-0.78,0.17-2.1,1.77-3.54,0.47c-2.35-2.11-3.32-2.75-3.32-2.75
		s1.29,3.21,1.39,3.61c0.13,0.52,0.14,2.19-0.45,2.71c-0.52,0.47-0.19,1.22,0.26,1.11C60.54,253.55,65.4,250.17,65.87,249.17z"/>
	<path class="st5" d="M55.4,251.2c-0.16-0.4-0.06-0.64-0.53,0.02c-0.29,0.41-0.16,1.68-1.46,1.72c-2.12,0.08-2.89,0.22-2.89,0.22
		s2.14,0.86,2.37,0.99c0.31,0.17,1.1,0.9,1.08,1.38c-0.03,0.43,0.49,0.61,0.65,0.38C54.95,255.42,55.66,251.85,55.4,251.2z"/>
	<path class="st5" d="M64.23,251.36c0.35-0.58,0.75-0.72-0.52-0.6c-0.8,0.08-2.28,1.52-3.57,0.07c-2.09-2.36-2.99-3.1-2.99-3.1
		s0.92,3.33,0.97,3.74c0.07,0.53-0.11,2.19-0.75,2.65c-0.57,0.41-0.32,1.19,0.13,1.13C58.43,255.12,63.65,252.31,64.23,251.36z"/>
	<path class="st5" d="M68.11,248.97c0.26-0.74,0.67-1-0.71-0.51c-0.86,0.31-2.18,2.3-3.91,1.07c-2.82-2-3.97-2.56-3.97-2.56
		s1.75,3.39,1.89,3.82c0.19,0.56,0.36,2.42-0.24,3.1c-0.54,0.6-0.09,1.39,0.39,1.2C62.57,254.7,67.69,250.17,68.11,248.97z"/>
	<path class="st5" d="M74.54,242.63c0.28-0.75,0.69-1.02-0.7-0.5c-0.87,0.33-2.24,2.37-3.95,1.18c-2.79-1.95-3.93-2.49-3.93-2.49
		s1.67,3.38,1.81,3.81c0.18,0.57,0.31,2.44-0.32,3.14c-0.55,0.62-0.13,1.41,0.37,1.2C68.83,248.55,74.08,243.85,74.54,242.63z"/>
	<path class="st5" d="M68.43,247.2c0.22-0.65,0.57-0.87-0.64-0.47c-0.76,0.25-1.89,1.99-3.46,0.86c-2.57-1.84-3.6-2.36-3.6-2.36
		s1.64,3.05,1.78,3.43c0.19,0.51,0.38,2.16-0.14,2.75c-0.46,0.52-0.05,1.23,0.38,1.07C63.62,252.15,68.08,248.25,68.43,247.2z"/>
	<path class="st5" d="M77.42,238.94c0.22-0.65,0.57-0.87-0.64-0.47c-0.76,0.25-1.89,1.99-3.46,0.86c-2.57-1.84-3.6-2.36-3.6-2.36
		s1.64,3.05,1.78,3.43c0.19,0.51,0.38,2.16-0.14,2.75c-0.46,0.52-0.05,1.23,0.38,1.07C72.61,243.89,77.07,239.99,77.42,238.94z"/>
	<path class="st5" d="M87.9,231.45c0.22-0.65,0.57-0.87-0.64-0.47c-0.76,0.25-1.89,1.99-3.46,0.86c-2.57-1.84-3.6-2.36-3.6-2.36
		s1.64,3.05,1.78,3.43c0.19,0.51,0.38,2.16-0.14,2.75c-0.46,0.52-0.05,1.23,0.38,1.07C83.08,236.41,87.55,232.51,87.9,231.45z"/>
	<path class="st6" d="M95.69,224.73c0.41-0.55,0.82-0.64-0.46-0.65c-0.8,0-2.42,1.29-3.56-0.27c-1.86-2.55-2.68-3.38-2.68-3.38
		s0.59,3.41,0.61,3.81c0.02,0.54-0.32,2.17-1,2.56c-0.61,0.35-0.44,1.15,0.02,1.14C89.56,227.91,95.02,225.61,95.69,224.73z"/>
	<path class="st6" d="M97.63,218.29c0.14-0.67,0.46-0.93-0.69-0.39c-0.72,0.34-1.64,2.2-3.33,1.27c-2.77-1.51-3.86-1.91-3.86-1.91
		s1.99,2.83,2.18,3.19c0.25,0.48,0.64,2.09,0.19,2.74c-0.4,0.57,0.1,1.23,0.51,1.02C93.45,223.78,97.41,219.37,97.63,218.29z"/>
	<path class="st6" d="M91.17,228.38c0.36-0.58,0.76-0.71-0.51-0.61c-0.8,0.06-2.31,1.48-3.57,0.02c-2.06-2.39-2.94-3.15-2.94-3.15
		s0.87,3.35,0.91,3.75c0.06,0.53-0.14,2.19-0.79,2.63c-0.57,0.4-0.34,1.18,0.11,1.13C85.32,232.05,90.57,229.32,91.17,228.38z"/>
	<path class="st4" d="M83.55,235.45c0.29-0.62,0.66-0.8-0.59-0.54c-0.78,0.17-2.1,1.77-3.54,0.47c-2.35-2.11-3.32-2.75-3.32-2.75
		s1.29,3.21,1.39,3.61c0.13,0.52,0.14,2.19-0.45,2.71c-0.52,0.47-0.19,1.22,0.26,1.11C78.22,239.84,83.09,236.46,83.55,235.45z"/>
	<path class="st4" d="M101.68,216.81c0.22-0.5,0.52-0.63-0.48-0.44c-0.63,0.12-1.65,1.39-2.83,0.32c-1.92-1.74-2.71-2.27-2.71-2.27
		s1.09,2.61,1.17,2.93c0.11,0.42,0.15,1.76-0.31,2.18c-0.41,0.37-0.13,0.98,0.23,0.9C97.47,220.26,101.32,217.61,101.68,216.81z"/>
	<path class="st4" d="M106.85,212.66c0.29-0.62,0.66-0.8-0.59-0.54c-0.78,0.17-2.1,1.77-3.54,0.47c-2.35-2.11-3.32-2.75-3.32-2.75
		s1.29,3.21,1.39,3.61c0.13,0.52,0.14,2.19-0.45,2.71c-0.52,0.47-0.19,1.22,0.26,1.11C101.51,217.05,106.38,213.67,106.85,212.66z"
		/>
	<path class="st5" d="M81.9,235.91c0.23-0.74,0.63-0.98-0.76-0.56c-0.87,0.26-2.12,2.22-3.98,0.88c-3.03-2.2-4.25-2.84-4.25-2.84
		s2,3.56,2.17,4c0.23,0.59,0.51,2.49-0.08,3.15c-0.52,0.59-0.02,1.41,0.47,1.25C76.49,241.45,81.53,237.11,81.9,235.91z"/>
	<path class="st5" d="M60.14,251.14c0.18-0.66,0.53-0.9-0.67-0.43c-0.75,0.29-1.78,2.08-3.41,1.04c-2.66-1.7-3.72-2.17-3.72-2.17
		s1.79,2.96,1.95,3.33c0.21,0.49,0.49,2.13,0,2.75c-0.44,0.55,0.01,1.23,0.43,1.05C55.59,256.33,59.84,252.21,60.14,251.14z"/>
	<path class="st5" d="M66.52,251.66c0.63-0.72,1.2-0.9-0.55-0.72c-1.09,0.11-3.46,1.91-4.83,0.17c-2.23-2.85-3.25-3.75-3.25-3.75
		s0.4,4.07,0.37,4.57c-0.04,0.65-0.7,2.69-1.68,3.26c-0.87,0.51-0.73,1.47-0.11,1.38C57.75,256.41,65.5,252.84,66.52,251.66z"/>
</g>
<g id="Shark-upper-teeth-right">
	<path class="st6" d="M83.99,150.19c-0.04-0.8-5.55-4.04-6.42-3.74c-1.04,0.36-0.73,0.79-0.27,1.31c-0.07-0.08,0.56,10.94,0.6,7.5
		c0,0,2.97-4.37,4.6-4.58C83.08,150.61,84.05,151.36,83.99,150.19z"/>
	<path class="st6" d="M79.25,147.04c-0.05-0.98-6.91-5.11-7.99-4.76c-1.29,0.41-0.91,0.95-0.33,1.59c0.84,0.94,0.78,9.21,0.78,9.21
		s3.67-5.27,5.69-5.48C78.12,147.53,79.33,148.48,79.25,147.04z"/>
	<path class="st6" d="M72.67,144.99c-0.15-0.86-6.51-3.39-7.4-2.9c-1.07,0.58-0.69,0.99-0.12,1.47c0.83,0.7,1.64,8.04,1.64,8.04
		s2.62-5.29,4.34-5.8C71.74,145.62,72.89,146.26,72.67,144.99z"/>
	<path class="st6" d="M67.07,142.76c-0.16-0.91-6.93-3.6-7.88-3.09c-1.14,0.61-0.73,1.05-0.12,1.56c0.88,0.74,1.76,8.53,1.76,8.53
		s2.77-5.6,4.6-6.14C66.08,143.42,67.3,144.1,67.07,142.76z"/>
	<path class="st6" d="M62.05,140.89c-0.03-0.74-5.38-3.52-6.24-3.2c-1.03,0.39-0.74,0.77-0.29,1.23c-0.07-0.07,0.35,10.19,0.45,6.98
		c0,0,3-4.22,4.6-4.48C61.15,141.33,62.09,141.98,62.05,140.89z"/>
	<path class="st6" d="M57.45,138.16c-0.04-0.91-6.7-4.46-7.76-4.09c-1.28,0.45-0.91,0.92-0.36,1.5c0.81,0.84,0.59,8.57,0.59,8.57
		s3.71-5.09,5.69-5.37C56.33,138.67,57.5,139.5,57.45,138.16z"/>
	<path class="st6" d="M51.02,136.55c-0.13-0.8-6.34-2.87-7.23-2.38c-1.06,0.59-0.69,0.95-0.14,1.38c0.8,0.61,1.47,7.44,1.47,7.44
		s2.67-5.05,4.37-5.61C50.09,137.17,51.21,137.72,51.02,136.55z"/>
	<path class="st6" d="M45.55,134.71c-0.14-0.84-6.75-3.06-7.69-2.53c-1.13,0.62-0.73,1.01-0.15,1.46c0.85,0.65,1.57,7.89,1.57,7.89
		s2.83-5.35,4.64-5.94C44.57,135.37,45.76,135.95,45.55,134.71z"/>
</g>
<g id="Shark-upper-teeth-left">
	<path class="st5" d="M39.8,129.42c-0.28-0.95-7.79-1.92-8.75-1.09c-1.14,1-0.65,1.35,0.05,1.73c1.02,0.55,2.87,8.78,2.87,8.78
		s2.29-6.9,4.18-8.02C38.83,130.43,40.21,130.81,39.8,129.42z"/>
	<path class="st5" d="M50.22,131.72c-0.38-1.21-12.63-5.22-14.26-4.61c-1.96,0.73-1.19,1.33-0.07,2.04
		c1.63,1.04,3.95,11.35,3.95,11.35s4.37-7.18,7.56-7.76C48.53,132.52,50.77,133.5,50.22,131.72z"/>
	<path class="st5" d="M58.25,133.86c-0.24-1.21-10.64-4.42-12.11-3.68c-1.76,0.89-1.13,1.44-0.21,2.09
		c1.35,0.94,2.63,11.3,2.63,11.3s4.33-7.64,7.15-8.47C56.72,134.8,58.6,135.64,58.25,133.86z"/>
	<path class="st5" d="M88.3,144.4c-0.12-1.04-9.82-5.79-11.3-5.47c-1.77,0.37-1.22,0.96-0.39,1.68c1.21,1.05,1.5,9.83,1.5,9.83
		s4.85-5.41,7.64-5.53C86.75,144.86,88.47,145.93,88.3,144.4z"/>
	<path class="st5" d="M76.72,142.23c0.1-1.02-7.73-5.71-9.13-5.41c-1.67,0.36-1.29,0.94-0.68,1.64c0.89,1.03-0.59,9.66-0.59,9.66
		s5.46-5.3,8-5.4C75.23,142.69,76.58,143.74,76.72,142.23z"/>
	<path class="st5" d="M68.31,136.35c-0.27-1.12-10.5-3.43-11.9-2.63c-1.68,0.96-1.05,1.44-0.13,1.98
		c1.35,0.79,2.94,10.49,2.94,10.49s3.95-7.52,6.67-8.5C66.86,137.35,68.72,138.01,68.31,136.35z"/>
	<path class="st5" d="M93.62,147.22c-0.23-0.9-8.67-2.84-9.82-2.2c-1.38,0.76-0.85,1.15-0.09,1.59c1.11,0.65,2.5,8.44,2.5,8.44
		s3.19-6.01,5.42-6.77C92.44,148.01,93.97,148.55,93.62,147.22z"/>
</g>
<g id="Shark-anal-fin">
	<path class="st7" d="M634.53,208.95c5.71,4.5,23.58,14.06,18.2,7.32c-5.26-6.59-0.66-11.14-0.66-11.14L634.53,208.95"/>
</g>
<g id="Shark-pectoral-tip">
	<path class="st8" d="M169.04,331.32c-0.31,4.66,13.6,47.03,28.41,39.12c7.39-3.95,15.67-44.46,15.67-44.46L169.04,331.32z"/>
</g>
<g id="Shark-right-pectoral">
	<path class="st9" d="M171.82,252.46c0,0-14.66,56.7,0,86.01c35.1,16.97,41.27-11.96,41.27-11.96s29.7-55.93,63.64-62.1
		C276.73,264.42,205.76,238.96,171.82,252.46z"/>
</g>
<g id="Shark-ltgray-body-coloration">
	<path class="st10" d="M747.21,206.7c37.34,30.82,90.2,120.91,114.72,93.82c-34.71-37.01-37.9-85.08-44.07-135.99
		c10.8-56.31,35.91-107.39,44.07-146.21c-29.03,29.34-39.57,51.1-59.5,74.08c-30.19,34.81-57.94,65.09-72.69,76.05
		c-20.51,8.11-81.17-9.72-81.17-9.72s-0.82-12.02-3.44-16.36c-3.33-5.52-21.73,9.27-28.86,7.64
		c-94.08-21.57-146.27-28.79-174.21-40.87C406.67,93.84,411.1,49.96,407.77,1.3c-48.86,13.86-62.3,74.75-89.84,83.31
		c-69.42-2.53-105.02,4.18-146.46,3.09C91.83,85.62,36.73,62.72,15.58,65.3c-13.5,4.99,2.28,13.26,16.51,37.69
		c7.36,12.65-6.85,26.72,0.17,27.22c28.43,2.01,36.49,4.4,52.04,15.71c15.25,11.09,40.89,58.37,37.89,57.6
		c-18.61-4.76-42.8,46.38-65.92,52.98c15.74,20.65,45.97-20.66,83.04-9.72c66.17,19.52,153.98,24.06,219.46,15.42
		c147.7-19.49,249.68-52.04,368.67-65.32c6.06-0.68,20.95,9.94,20.95,9.94"/>
</g>
<g id="Shark-dkgray-dorsal-coloration">
	<g>
		<path class="st11" d="M317.93,84.61c27.54-8.56,40.98-69.45,89.84-83.31c3.33,48.65-1.1,92.54,34.3,107.84
			c27.94,12.08,80.14,19.3,174.21,40.87c7.13,1.63,25.52-13.16,28.86-7.64c2.62,4.34,3.44,16.36,3.44,16.36s60.66,17.83,81.17,9.72
			c14.74-10.96,42.5-41.25,72.69-76.05c19.93-22.98,30.47-44.74,59.5-74.08c-8.16,38.82-33.27,89.9-44.07,146.21
			c6.17,50.91,9.36,98.98,44.07,135.99c-24.52,27.09-77.38-63-114.72-93.82c-16.51-13.63,18.98-25.21,15.11-24.43
			c-15.07,3.03-8.06-1.84-42.85,9.23c-75.91-10.28-130.06-12.48-167.79-9.13c-11.01,0.98-32.57,13.29-30.81,24.2
			c0.62,3.85,8.94-0.25,12.32,0.93c24.3,8.49,29.14-0.29,31.24,3.77c0.8,16.13,1.96,14.2,8.5,24.65
			c-22.24,6.45-46.13-4.42-57.8-13.6c-3.43-2.7,3.95-10.23-11.9-12.75c-46.26-7.35-86.09,7.62-126.78,5.75
			c-28.99-8.82-21.15-7.09-37.98-8.45c13.16,0.47,18.27,2.43,37.98,8.45c42.23,22.45,70.34,46.8,130.69,62.53
			c-75.58,11.65-140.54-20.76-212.67-58.94c-27.38,6.17-6.47-15.87-3.74-21.24c1.81-3.58-17.25-17.59-24.89-17.8
			c-65.86-1.84-102.58-4.41-139.79-14.37c-29.62-16.97-32.16-44.7-57.68-58.38c-24.6-13.19-81.71-37.58-43.8-42.2
			c21.15-2.58,67.27,20.7,146.91,22.79C212.91,88.79,248.51,82.09,317.93,84.61z"/>
	</g>
	<path class="st11" d="M556.01,211.87"/>
</g>
<g id="Shark-body-shape-outline">
	<path class="st12" d="M747.21,206.7c37.34,30.82,90.2,120.91,114.72,93.82c-34.71-37.01-37.9-85.08-44.07-135.99
		c10.8-56.31,35.91-107.39,44.07-146.21c-29.03,29.34-39.57,51.1-59.5,74.08c-30.19,34.81-57.94,65.09-72.69,76.05
		c-20.51,8.11-81.17-9.72-81.17-9.72s-0.82-12.02-3.44-16.36c-3.33-5.52-21.73,9.27-28.86,7.64
		c-94.08-21.57-146.27-28.79-174.21-40.87C406.67,93.84,411.1,49.96,407.77,1.3c-48.86,13.86-62.3,74.75-89.84,83.31
		c-69.42-2.53-105.02,4.18-146.46,3.09C91.83,85.62,36.73,62.72,15.58,65.3c-13.5,4.99,2.28,13.26,16.51,37.69
		c7.36,12.65-6.85,26.72,0.17,27.22c28.43,2.01,36.49,4.4,52.04,15.71c15.25,11.09,40.89,58.37,37.89,57.6
		c-18.61-4.76-42.8,46.38-65.92,52.98c15.74,20.65,45.97-20.66,83.04-9.72c66.17,19.52,153.98,24.06,219.46,15.42
		c147.7-19.49,249.68-52.04,368.67-65.32c6.06-0.68,20.95,9.94,20.95,9.94"/>
</g>
<g id="Shark-dorsal-fins">
	<path class="st13" d="M648.58,158.73c0,0-0.82-12.02-3.44-16.36c-3.33-5.52-21.7,9.11-28.86,7.64
		c-94.63-19.5-146.27-28.79-174.21-40.87C406.67,93.84,411.1,49.96,407.77,1.3c-48.86,13.86-62.3,74.75-89.84,83.31
		c0,0,96.77,13.92,124.14,24.53c36.42,14.12,125.32,30.91,174.21,40.87C638.34,154.5,648.58,158.73,648.58,158.73z"/>
</g>
<g id="Shark-left-pectoral-n-pelvic-fins">
	<path class="st14" d="M376.45,215.32c-28.99-8.82-21.15-7.09-37.98-8.45C351.63,207.34,356.74,209.3,376.45,215.32
		c42.23,22.45,70.34,46.8,130.69,62.53c-75.58,11.65-140.54-20.76-212.67-58.94c-27.38,6.17-6.47-15.87-3.74-21.24"/>
	<path class="st14" d="M376.45,215.32"/>
	<path class="st14" d="M503.23,209.56"/>
	<path class="st14" d="M556.8,212.36c9.56-2.17,6.51-3.28,7.64-1.09c0.8,16.13,1.96,14.2,8.5,24.65
		c-22.24,6.45-46.13-4.42-57.8-13.6c-3.43-2.7,3.95-10.23-11.9-12.75"/>
	<path class="st14" d="M290.73,197.66"/>
</g>
<g id="Shark-gills">
	<path class="st13" d="M442.07,109.15"/>
	<path class="st13" d="M262.28,182.98c3.05-17.26,6.26-43.45-16.57-68.12"/>
	<path class="st13" d="M274.43,191.81c4.11-19.19,6.17-50.08-15.47-76.96"/>
	<path class="st13" d="M283.26,191.81c6.68-17.72,5.35-56.71-6.53-75.49"/>
	<path class="st13" d="M289.16,120.01c7.73,6.63,9.21,61.86,3.31,68.86"/>
	<path class="st13" d="M300.94,126.64c6.26,4.05,7.36,49.34,0,60.39"/>
</g>
<g id="Shark-eye">
	<circle id="Shark-iris" cx="107.3" cy="114.86" r="7.75"/>
	<g id="Shark-eye-reflection">
		
			<ellipse transform="matrix(0.2199 -0.9755 0.9755 0.2199 -24.2437 192.8116)" class="st15" cx="108.43" cy="111.56" rx="0.82" ry="1.48"/>
	</g>
</g>
<g id="Shork-nostril">
	<path class="st16" d="M46.93,103.7c3.73,2.93,8.72-4.81,6.71-5.14c-2.01-0.34-3.64,3.08-3.64,3.08S45.01,102.19,46.93,103.7z"/>
</g>
</svg>
